<?xml version="1.0" encoding="UTF-8" standalone="no"?>
<!-- Created with Inkscape (http://www.inkscape.org/) -->

<svg
   xmlns:dc="http://purl.org/dc/elements/1.1/"
   xmlns:cc="http://creativecommons.org/ns#"
   xmlns:rdf="http://www.w3.org/1999/02/22-rdf-syntax-ns#"
   xmlns:svg="http://www.w3.org/2000/svg"
   xmlns="http://www.w3.org/2000/svg"
   xmlns:xlink="http://www.w3.org/1999/xlink"
   xmlns:sodipodi="http://sodipodi.sourceforge.net/DTD/sodipodi-0.dtd"
   xmlns:inkscape="http://www.inkscape.org/namespaces/inkscape"
   width="548"
   height="548"
   id="svg2"
   version="1.1"
   inkscape:version="0.48.5 r10040"
   sodipodi:docname="graphic-affordable-tuition-seal-soft.svg">
  <defs
     id="defs4">
    <linearGradient
       id="linearGradient5267">
      <stop
         id="stop5269"
         offset="0"
         style="stop-color:#6d71bf;stop-opacity:1;" />
      <stop
         id="stop5271"
         offset="1"
         style="stop-color:#3d418b;stop-opacity:1;" />
    </linearGradient>
    <linearGradient
       id="linearGradient5215">
      <stop
         style="stop-color:#ffffff;stop-opacity:1;"
         offset="0"
         id="stop5217" />
      <stop
         style="stop-color:#e1e1e6;stop-opacity:0.94117647;"
         offset="1"
         id="stop5219" />
    </linearGradient>
    <linearGradient
       id="linearGradient3759">
      <stop
         style="stop-color:#07d3ff;stop-opacity:1;"
         offset="0"
         id="stop3761" />
      <stop
         style="stop-color:#0096dc;stop-opacity:1;"
         offset="1"
         id="stop3763" />
    </linearGradient>
    <linearGradient
       inkscape:collect="always"
       xlink:href="#linearGradient3759"
       id="linearGradient5689"
       x1="112.61227"
       y1="342.11731"
       x2="573.45032"
       y2="802.95532"
       gradientUnits="userSpaceOnUse" />
    <linearGradient
       inkscape:collect="always"
       xlink:href="#linearGradient5215"
       id="linearGradient5257"
       x1="163.57144"
       y1="715.2193"
       x2="335"
       y2="886.64789"
       gradientUnits="userSpaceOnUse" />
    <linearGradient
       inkscape:collect="always"
       xlink:href="#linearGradient5267-8"
       id="linearGradient5265"
       gradientUnits="userSpaceOnUse"
       x1="163.57144"
       y1="715.2193"
       x2="335"
       y2="886.64789" />
    <linearGradient
       inkscape:collect="always"
       xlink:href="#linearGradient5267-8"
       id="linearGradient5265-2"
       gradientUnits="userSpaceOnUse"
       x1="163.57144"
       y1="715.2193"
       x2="335"
       y2="886.64789" />
    <linearGradient
       id="linearGradient5267-8">
      <stop
         id="stop5269-2"
         offset="0"
         style="stop-color:#0088c8;stop-opacity:1;" />
      <stop
         id="stop5271-0"
         offset="1"
         style="stop-color:#006da0;stop-opacity:1;" />
    </linearGradient>
    <linearGradient
       y2="886.64789"
       x2="335"
       y1="715.2193"
       x1="163.57144"
       gradientUnits="userSpaceOnUse"
       id="linearGradient27296"
       xlink:href="#linearGradient5267-8"
       inkscape:collect="always" />
    <linearGradient
       inkscape:collect="always"
       xlink:href="#linearGradient3759-7"
       id="linearGradient5689-8"
       x1="112.61227"
       y1="342.11731"
       x2="573.45032"
       y2="802.95532"
       gradientUnits="userSpaceOnUse" />
    <linearGradient
       id="linearGradient3759-7">
      <stop
         style="stop-color:#07d3ff;stop-opacity:1;"
         offset="0"
         id="stop3761-8" />
      <stop
         style="stop-color:#0096dc;stop-opacity:1;"
         offset="1"
         id="stop3763-1" />
    </linearGradient>
    <linearGradient
       y2="802.95532"
       x2="573.45032"
       y1="342.11731"
       x1="112.61227"
       gradientUnits="userSpaceOnUse"
       id="linearGradient28003"
       xlink:href="#linearGradient3759-7"
       inkscape:collect="always" />
    <linearGradient
       inkscape:collect="always"
       xlink:href="#linearGradient3759"
       id="linearGradient28028"
       x1="64.01442"
       y1="57.01442"
       x2="487.41418"
       y2="480.41415"
       gradientUnits="userSpaceOnUse" />
    <filter
       inkscape:collect="always"
       id="filter28042">
      <feGaussianBlur
         inkscape:collect="always"
         stdDeviation="8.467995"
         id="feGaussianBlur28044" />
    </filter>
  </defs>
  <sodipodi:namedview
     id="base"
     pagecolor="#ffffff"
     bordercolor="#666666"
     borderopacity="1.0"
     inkscape:pageopacity="0.0"
     inkscape:pageshadow="2"
     inkscape:zoom="1.4"
     inkscape:cx="402.5256"
     inkscape:cy="151.08578"
     inkscape:document-units="px"
     inkscape:current-layer="layer1"
     showgrid="false"
     inkscape:window-width="3440"
     inkscape:window-height="1377"
     inkscape:window-x="1912"
     inkscape:window-y="-8"
     inkscape:window-maximized="1"
     inkscape:snap-bbox="true"
     inkscape:bbox-nodes="true"
     inkscape:showpageshadow="false" />
  <metadata
     id="metadata7">
    <rdf:RDF>
      <cc:Work
         rdf:about="">
        <dc:format>image/svg+xml</dc:format>
        <dc:type
           rdf:resource="http://purl.org/dc/dcmitype/StillImage" />
        <dc:title></dc:title>
      </cc:Work>
    </rdf:RDF>
  </metadata>
  <g
     inkscape:label="Layer 1"
     inkscape:groupmode="layer"
     id="layer1"
     transform="translate(0,-504.36218)">
    <path
       sodipodi:type="star"
       style="fill:#000000;fill-opacity:0.19607843;stroke:none;filter:url(#filter28042)"
       id="path28040"
       sodipodi:sides="24"
       sodipodi:cx="275.71429"
       sodipodi:cy="268.71429"
       sodipodi:r1="211.69987"
       sodipodi:r2="199.08092"
       sodipodi:arg1="0.78539816"
       sodipodi:arg2="0.91629785"
       inkscape:flatsided="false"
       inkscape:rounded="0.25"
       inkscape:randomized="0"
       d="m 425.40871,418.40871 c -5.24511,5.24511 -22.61677,3.73148 -28.50163,8.24709 -5.88486,4.51562 -8.91893,21.68711 -15.34285,25.39596 -6.42392,3.70886 -22.8119,-2.24931 -29.66497,0.58932 -6.85306,2.83863 -14.22805,18.63975 -21.39301,20.55959 -7.16495,1.91984 -21.45243,-8.07683 -28.80668,-7.10862 -7.35425,0.9682 -18.56757,14.32212 -25.98527,14.32212 -7.41771,0 -18.63103,-13.35392 -25.98528,-14.32212 -7.35424,-0.96821 -21.64173,9.02846 -28.80668,7.10862 -7.16496,-1.91984 -14.53995,-17.72096 -21.39301,-20.55959 -6.85307,-2.83863 -23.24105,3.11954 -29.66497,-0.58932 -6.42392,-3.70885 -9.45799,-20.88034 -15.34285,-25.39595 -5.88486,-4.51562 -23.25652,-3.00199 -28.50163,-8.2471 -5.24511,-5.24511 -3.73148,-22.61677 -8.2471,-28.50163 -4.51561,-5.88486 -21.687102,-8.91893 -25.395955,-15.34285 -3.708852,-6.42392 2.249318,-22.8119 -0.589315,-29.66497 C 88.948877,338.0462 73.147762,330.67121 71.227918,323.50625 69.308075,316.3413 79.304747,302.05382 78.336542,294.69957 77.368337,287.34532 64.01442,276.132 64.01442,268.7143 c 0,-7.41771 13.353917,-18.63103 14.322122,-25.98528 0.968205,-7.35424 -9.028468,-21.64173 -7.108624,-28.80668 1.919843,-7.16496 17.720958,-14.53995 20.559591,-21.39301 2.838633,-6.85307 -3.119537,-23.24105 0.589315,-29.66497 3.708853,-6.42392 20.880346,-9.45799 25.395956,-15.34285 4.51562,-5.88486 3.00199,-23.25652 8.2471,-28.50163 5.24511,-5.24511 22.61677,-3.73148 28.50163,-8.2471 5.88486,-4.51561 8.91892,-21.687102 15.34285,-25.395955 6.42392,-3.708852 22.8119,2.249318 29.66496,-0.589315 6.85307,-2.838633 14.22806,-18.639748 21.39301,-20.559592 7.16496,-1.919843 21.45244,8.076829 28.80669,7.108624 7.35425,-0.968205 18.56757,-14.322122 25.98527,-14.322122 7.41771,0 18.63103,13.353917 25.98528,14.322122 7.35424,0.968205 21.64173,-9.028468 28.80668,-7.108624 7.16496,1.919843 14.53995,17.720958 21.39301,20.559591 6.85307,2.838633 23.24105,-3.119537 29.66497,0.589315 6.42392,3.708853 9.45799,20.880346 15.34285,25.395956 5.88486,4.51562 23.25652,3.00199 28.50163,8.2471 5.24511,5.24511 3.73148,22.61677 8.24709,28.50163 4.51562,5.88486 21.68711,8.91892 25.39596,15.34285 3.70886,6.42392 -2.24931,22.8119 0.58932,29.66496 2.83863,6.85307 18.63975,14.22806 20.55959,21.39301 1.91984,7.16496 -8.07683,21.45244 -7.10862,28.80669 0.9682,7.35425 14.32212,18.56757 14.32212,25.98527 0,7.41771 -13.35392,18.63103 -14.32212,25.98528 -0.96821,7.35424 9.02846,21.64173 7.10862,28.80668 -1.91984,7.16496 -17.72096,14.53995 -20.55959,21.39301 -2.83863,6.85307 3.11954,23.24105 -0.58932,29.66497 -3.70885,6.42392 -20.88034,9.45799 -25.39595,15.34285 -4.51562,5.88486 -3.00199,23.25652 -8.2471,28.50163 z"
       transform="matrix(1.1809171,0,0,1.1809171,-51.595724,461.03288)" />
    <path
       transform="matrix(1.1809171,0,0,1.1809171,-51.595724,461.03288)"
       style="fill:#ffffff;fill-opacity:1;stroke:none"
       d="m 425.40871,418.40871 c -5.24511,5.24511 -22.61677,3.73148 -28.50163,8.24709 -5.88486,4.51562 -8.91893,21.68711 -15.34285,25.39596 -6.42392,3.70886 -22.8119,-2.24931 -29.66497,0.58932 -6.85306,2.83863 -14.22805,18.63975 -21.39301,20.55959 -7.16495,1.91984 -21.45243,-8.07683 -28.80668,-7.10862 -7.35425,0.9682 -18.56757,14.32212 -25.98527,14.32212 -7.41771,0 -18.63103,-13.35392 -25.98528,-14.32212 -7.35424,-0.96821 -21.64173,9.02846 -28.80668,7.10862 -7.16496,-1.91984 -14.53995,-17.72096 -21.39301,-20.55959 -6.85307,-2.83863 -23.24105,3.11954 -29.66497,-0.58932 -6.42392,-3.70885 -9.45799,-20.88034 -15.34285,-25.39595 -5.88486,-4.51562 -23.25652,-3.00199 -28.50163,-8.2471 -5.24511,-5.24511 -3.73148,-22.61677 -8.2471,-28.50163 -4.51561,-5.88486 -21.687102,-8.91893 -25.395955,-15.34285 -3.708852,-6.42392 2.249318,-22.8119 -0.589315,-29.66497 C 88.948877,338.0462 73.147762,330.67121 71.227918,323.50625 69.308075,316.3413 79.304747,302.05382 78.336542,294.69957 77.368337,287.34532 64.01442,276.132 64.01442,268.7143 c 0,-7.41771 13.353917,-18.63103 14.322122,-25.98528 0.968205,-7.35424 -9.028468,-21.64173 -7.108624,-28.80668 1.919843,-7.16496 17.720958,-14.53995 20.559591,-21.39301 2.838633,-6.85307 -3.119537,-23.24105 0.589315,-29.66497 3.708853,-6.42392 20.880346,-9.45799 25.395956,-15.34285 4.51562,-5.88486 3.00199,-23.25652 8.2471,-28.50163 5.24511,-5.24511 22.61677,-3.73148 28.50163,-8.2471 5.88486,-4.51561 8.91892,-21.687102 15.34285,-25.395955 6.42392,-3.708852 22.8119,2.249318 29.66496,-0.589315 6.85307,-2.838633 14.22806,-18.639748 21.39301,-20.559592 7.16496,-1.919843 21.45244,8.076829 28.80669,7.108624 7.35425,-0.968205 18.56757,-14.322122 25.98527,-14.322122 7.41771,0 18.63103,13.353917 25.98528,14.322122 7.35424,0.968205 21.64173,-9.028468 28.80668,-7.108624 7.16496,1.919843 14.53995,17.720958 21.39301,20.559591 6.85307,2.838633 23.24105,-3.119537 29.66497,0.589315 6.42392,3.708853 9.45799,20.880346 15.34285,25.395956 5.88486,4.51562 23.25652,3.00199 28.50163,8.2471 5.24511,5.24511 3.73148,22.61677 8.24709,28.50163 4.51562,5.88486 21.68711,8.91892 25.39596,15.34285 3.70886,6.42392 -2.24931,22.8119 0.58932,29.66496 2.83863,6.85307 18.63975,14.22806 20.55959,21.39301 1.91984,7.16496 -8.07683,21.45244 -7.10862,28.80669 0.9682,7.35425 14.32212,18.56757 14.32212,25.98527 0,7.41771 -13.35392,18.63103 -14.32212,25.98528 -0.96821,7.35424 9.02846,21.64173 7.10862,28.80668 -1.91984,7.16496 -17.72096,14.53995 -20.55959,21.39301 -2.83863,6.85307 3.11954,23.24105 -0.58932,29.66497 -3.70885,6.42392 -20.88034,9.45799 -25.39595,15.34285 -4.51562,5.88486 -3.00199,23.25652 -8.2471,28.50163 z"
       id="path28036" />
    <path
       transform="matrix(1.0864437,0,0,1.0864437,-25.548057,486.41923)"
       style="fill:url(#linearGradient28028);fill-opacity:1;stroke:none"
       d="m 425.40871,418.40871 c -5.24511,5.24511 -22.61677,3.73148 -28.50163,8.24709 -5.88486,4.51562 -8.91893,21.68711 -15.34285,25.39596 -6.42392,3.70886 -22.8119,-2.24931 -29.66497,0.58932 -6.85306,2.83863 -14.22805,18.63975 -21.39301,20.55959 -7.16495,1.91984 -21.45243,-8.07683 -28.80668,-7.10862 -7.35425,0.9682 -18.56757,14.32212 -25.98527,14.32212 -7.41771,0 -18.63103,-13.35392 -25.98528,-14.32212 -7.35424,-0.96821 -21.64173,9.02846 -28.80668,7.10862 -7.16496,-1.91984 -14.53995,-17.72096 -21.39301,-20.55959 -6.85307,-2.83863 -23.24105,3.11954 -29.66497,-0.58932 -6.42392,-3.70885 -9.45799,-20.88034 -15.34285,-25.39595 -5.88486,-4.51562 -23.25652,-3.00199 -28.50163,-8.2471 -5.24511,-5.24511 -3.73148,-22.61677 -8.2471,-28.50163 -4.51561,-5.88486 -21.687102,-8.91893 -25.395955,-15.34285 -3.708852,-6.42392 2.249318,-22.8119 -0.589315,-29.66497 C 88.948877,338.0462 73.147762,330.67121 71.227918,323.50625 69.308075,316.3413 79.304747,302.05382 78.336542,294.69957 77.368337,287.34532 64.01442,276.132 64.01442,268.7143 c 0,-7.41771 13.353917,-18.63103 14.322122,-25.98528 0.968205,-7.35424 -9.028468,-21.64173 -7.108624,-28.80668 1.919843,-7.16496 17.720958,-14.53995 20.559591,-21.39301 2.838633,-6.85307 -3.119537,-23.24105 0.589315,-29.66497 3.708853,-6.42392 20.880346,-9.45799 25.395956,-15.34285 4.51562,-5.88486 3.00199,-23.25652 8.2471,-28.50163 5.24511,-5.24511 22.61677,-3.73148 28.50163,-8.2471 5.88486,-4.51561 8.91892,-21.687102 15.34285,-25.395955 6.42392,-3.708852 22.8119,2.249318 29.66496,-0.589315 6.85307,-2.838633 14.22806,-18.639748 21.39301,-20.559592 7.16496,-1.919843 21.45244,8.076829 28.80669,7.108624 7.35425,-0.968205 18.56757,-14.322122 25.98527,-14.322122 7.41771,0 18.63103,13.353917 25.98528,14.322122 7.35424,0.968205 21.64173,-9.028468 28.80668,-7.108624 7.16496,1.919843 14.53995,17.720958 21.39301,20.559591 6.85307,2.838633 23.24105,-3.119537 29.66497,0.589315 6.42392,3.708853 9.45799,20.880346 15.34285,25.395956 5.88486,4.51562 23.25652,3.00199 28.50163,8.2471 5.24511,5.24511 3.73148,22.61677 8.24709,28.50163 4.51562,5.88486 21.68711,8.91892 25.39596,15.34285 3.70886,6.42392 -2.24931,22.8119 0.58932,29.66496 2.83863,6.85307 18.63975,14.22806 20.55959,21.39301 1.91984,7.16496 -8.07683,21.45244 -7.10862,28.80669 0.9682,7.35425 14.32212,18.56757 14.32212,25.98527 0,7.41771 -13.35392,18.63103 -14.32212,25.98528 -0.96821,7.35424 9.02846,21.64173 7.10862,28.80668 -1.91984,7.16496 -17.72096,14.53995 -20.55959,21.39301 -2.83863,6.85307 3.11954,23.24105 -0.58932,29.66497 -3.70885,6.42392 -20.88034,9.45799 -25.39595,15.34285 -4.51562,5.88486 -3.00199,23.25652 -8.2471,28.50163 z"
       id="path27478" />
    <path
       style="font-size:medium;font-style:normal;font-variant:normal;font-weight:normal;font-stretch:normal;text-indent:0;text-align:start;text-decoration:none;line-height:normal;letter-spacing:normal;word-spacing:normal;text-transform:none;direction:ltr;block-progression:tb;writing-mode:lr-tb;text-anchor:start;baseline-shift:baseline;color:#000000;fill:#ffffff;fill-opacity:0.39215687;stroke:none;stroke-width:1.92454433000000000;marker:none;visibility:visible;display:inline;overflow:visible;enable-background:accumulate;font-family:Sans;-inkscape-font-specification:Sans"
       d="m 274.00463,557.37295 c -4.45435,0 -9.28519,3.63984 -14.12672,7.24198 -4.84153,3.60213 -9.72593,7.19766 -13.02256,7.63167 -3.29664,0.43401 -8.90756,-1.76813 -14.51642,-3.99445 -5.60886,-2.22631 -11.22058,-4.49782 -15.52316,-3.34495 -4.30258,1.15288 -8.04425,5.9194 -11.7885,10.65187 -3.74426,4.73248 -7.51496,9.47685 -10.58692,10.7493 -3.07197,1.27246 -9.07456,0.60135 -15.06851,-0.0974 -5.99394,-0.69878 -12.02279,-1.48025 -15.88038,0.74693 -3.85759,2.22718 -6.21411,7.83948 -8.60593,13.37979 -2.39182,5.5403 -4.79886,11.06333 -7.43683,13.08751 -2.63796,2.02418 -8.6108,2.92322 -14.58137,3.7996 -5.97057,0.87638 -11.98375,1.72158 -15.13345,4.87128 -3.14971,3.14972 -3.9949,9.16289 -4.87128,15.13346 -0.87639,5.97056 -1.77543,11.9434 -3.7996,14.58137 -2.02418,2.63796 -7.54721,5.04501 -13.087518,7.43682 -5.540304,2.39182 -11.152612,4.74835 -13.37979,8.60594 -2.227179,3.85758 -1.445706,9.88642 -0.74693,15.88038 0.698775,5.99396 1.369878,11.99653 0.09743,15.0685 -1.272453,3.07197 -6.016823,6.84267 -10.749297,10.58692 -4.732474,3.74425 -9.498999,7.48593 -10.651872,11.78851 -1.152872,4.30257 1.118633,9.91429 3.344948,15.52315 2.226315,5.60886 4.428462,11.21979 3.994452,14.51642 -0.434011,3.29664 -4.029543,8.18104 -7.631677,13.02257 -3.602133,4.84153 -7.241974,9.67236 -7.241974,14.12672 0,4.45435 3.639841,9.28519 7.241974,14.12672 3.602134,4.84153 7.197666,9.69345 7.631677,12.99008 0.43401,3.29664 -1.768137,8.94004 -3.994452,14.5489 -2.226315,5.60886 -4.49782,11.22058 -3.344948,15.52316 1.152873,4.30257 5.919398,8.01177 10.651872,11.75603 4.732474,3.74425 9.476844,7.54742 10.749297,10.61939 1.272453,3.07197 0.60135,9.07455 -0.09743,15.0685 -0.698776,5.99395 -1.480249,11.99032 0.74693,15.84791 2.227178,3.85759 7.839486,6.21412 13.37979,8.60593 5.540308,2.39182 11.063338,4.83134 13.087518,7.4693 2.02417,2.63797 2.92321,8.61081 3.7996,14.58138 0.87638,5.97056 1.72158,11.98375 4.87128,15.13345 3.14971,3.14971 9.16288,3.96242 15.13345,4.83881 5.97057,0.87638 11.94341,1.77542 14.58137,3.7996 2.63797,2.02417 5.04501,7.57968 7.43683,13.11999 2.39182,5.5403 4.74834,11.12013 8.60593,13.34731 3.85759,2.22718 9.88642,1.47818 15.88038,0.77941 5.99396,-0.69878 11.99654,-1.36989 15.06851,-0.0974 3.07196,1.27246 6.84266,6.01682 10.58692,10.7493 3.74425,4.73247 7.48592,9.49899 11.7885,10.65187 4.30258,1.15287 9.9143,-1.11863 15.52316,-3.34495 5.60886,-2.22631 11.21978,-4.46094 14.51642,-4.02693 3.29663,0.43402 8.18103,4.02955 13.02256,7.63168 4.84153,3.60213 9.67237,7.27445 14.12672,7.27445 4.45435,0 9.28519,-3.67232 14.12672,-7.27445 4.78509,-3.56015 9.56588,-7.09787 12.86019,-7.5992 l 0.1299,-0.0325 c 3.29663,-0.43401 8.94004,1.80062 14.5489,4.02693 5.60886,2.22632 11.22057,4.49782 15.52315,3.34495 4.30258,-1.15288 8.01178,-5.9194 11.75603,-10.65187 3.74425,-4.73248 7.54743,-9.47684 10.6194,-10.7493 3.07197,-1.27246 9.07455,-0.60135 15.0685,0.0974 5.99395,0.69877 11.99032,1.44777 15.84791,-0.77941 3.85758,-2.22718 6.21411,-7.80701 8.60593,-13.34731 2.39182,-5.54031 4.83133,-11.09582 7.4693,-13.11999 2.63796,-2.02418 8.61081,-2.92322 14.58137,-3.7996 5.97057,-0.87639 11.98375,-1.68911 15.13345,-4.83881 3.14972,-3.14971 3.96243,-9.16289 4.83881,-15.13345 0.87639,-5.97057 1.77542,-11.94341 3.7996,-14.58138 2.02418,-2.63796 7.57969,-5.07748 13.11999,-7.4693 5.5403,-2.39181 11.12014,-4.74834 13.34732,-8.60593 2.22717,-3.85759 1.47817,-9.85395 0.7794,-15.84791 -0.69877,-5.99396 -1.36988,-11.99653 -0.0974,-15.0685 1.27246,-3.07197 6.01683,-6.87514 10.7493,-10.61939 4.73248,-3.74426 9.499,-7.45346 10.65187,-11.75603 1.15288,-4.30258 -1.11863,-9.9143 -3.34494,-15.52316 -2.22632,-5.60886 -4.46095,-11.25226 -4.02693,-14.5489 0.43401,-3.29663 4.02955,-8.14855 7.63168,-12.99008 3.60213,-4.84153 7.27444,-9.67237 7.27444,-14.12672 0,-4.45436 -3.67231,-9.28519 -7.27444,-14.12672 -3.60213,-4.84153 -7.19767,-9.72593 -7.63168,-13.02257 -0.43402,-3.29663 1.80061,-8.90756 4.02693,-14.51642 2.22631,-5.60886 4.49782,-11.22058 3.34494,-15.52315 -1.15287,-4.30258 -5.91939,-8.04426 -10.65187,-11.78851 -4.73247,-3.74425 -9.47684,-7.51495 -10.7493,-10.58692 -1.27245,-3.07197 -0.60134,-9.07455 0.0974,-15.0685 0.69516,-5.96293 1.43809,-11.95569 -0.74693,-15.81543 l -0.0325,-0.0649 c -2.22718,-3.85759 -7.80702,-6.21412 -13.34732,-8.60594 -5.5403,-2.39181 -11.09581,-4.79886 -13.11999,-7.43682 -2.02418,-2.63797 -2.92321,-8.61081 -3.7996,-14.58137 -0.87638,-5.97057 -1.68911,-11.98376 -4.83881,-15.13346 -3.14971,-3.14971 -9.16288,-3.9949 -15.13345,-4.87128 -5.97056,-0.87638 -11.94341,-1.77542 -14.58137,-3.7996 -2.63797,-2.02418 -5.07748,-7.54721 -7.4693,-13.08751 -2.39182,-5.54031 -4.74835,-11.15261 -8.60593,-13.37979 -3.85759,-2.22718 -9.85395,-1.44571 -15.84791,-0.74693 -5.99396,0.69877 -11.99653,1.36988 -15.0685,0.0974 -3.07197,-1.27245 -6.87515,-6.01682 -10.6194,-10.7493 -3.74425,-4.73247 -7.45345,-9.49899 -11.75603,-10.65187 -4.30258,-1.15287 -9.91429,1.11864 -15.52315,3.34495 -5.60886,2.22632 -11.25227,4.42846 -14.5489,3.99445 l -0.0325,0 c -3.29621,-0.44982 -8.12914,-4.03926 -12.95761,-7.63167 -4.84153,-3.60214 -9.67237,-7.24198 -14.12672,-7.24198 z m 0,1.98099 c 3.25417,0 8.10241,3.2966 12.92514,6.88475 4.82273,3.58815 9.58591,7.41675 13.93187,7.9889 4.34595,0.57216 9.96855,-1.90668 15.55563,-4.12435 5.58707,-2.21767 11.11333,-4.12224 14.25662,-3.28 3.14329,0.84224 6.9871,5.25579 10.71682,9.96989 3.72972,4.7141 7.34902,9.68886 11.3988,11.36633 4.04978,1.67747 10.10455,0.72854 16.07523,0.0325 5.97069,-0.69607 11.82813,-1.10749 14.64633,0.5196 2.81819,1.62708 5.37904,6.88674 7.76158,12.40553 2.38253,5.51879 4.57623,11.23092 8.05385,13.8994 l 0.0974,0.0649 c 3.49185,2.61272 9.52826,3.2587 15.42572,4.12435 5.9474,0.87298 11.69578,1.98568 13.99682,4.28673 2.30105,2.30104 3.41375,8.04943 4.28673,13.99682 0.87299,5.94739 1.55331,12.04553 4.22178,15.52315 2.66848,3.47762 8.3806,5.70379 13.89939,8.08633 5.5188,2.38254 10.77845,4.94338 12.40554,7.76158 1.62708,2.81819 1.21566,8.67564 0.5196,14.64632 -0.69606,5.97068 -1.645,12.02546 0.0325,16.07524 1.67747,4.04977 6.61975,7.66907 11.33385,11.3988 4.7141,3.72972 9.16012,7.54105 10.00237,10.68434 0.84224,3.14329 -1.09481,8.70202 -3.31248,14.2891 -2.21766,5.58708 -4.69651,11.1772 -4.12435,15.52315 0.57216,4.34596 4.43323,9.14162 8.02138,13.96435 3.58815,4.82273 6.85227,9.67096 6.85227,12.92514 0,3.25417 -3.26412,8.1024 -6.85227,12.92513 -3.58815,4.82273 -7.44922,9.58592 -8.02138,13.93187 -0.57216,4.34596 1.90669,9.96855 4.12435,15.55563 2.21767,5.58708 4.15472,11.11333 3.31248,14.25662 -0.84225,3.14329 -5.28827,6.9871 -10.00237,10.71682 -4.7141,3.72973 -9.65638,7.34903 -11.33385,11.39881 -1.67748,4.04978 -0.72854,10.10455 -0.0325,16.07523 0.69413,5.95409 1.09168,11.78675 -0.5196,14.61385 l 0,0.0325 c -1.62709,2.8182 -6.88674,5.37904 -12.40554,7.76158 -5.51879,2.38254 -11.23091,4.57623 -13.89939,8.05386 -2.66847,3.47762 -3.34879,9.57576 -4.22178,15.52315 -0.87298,5.94739 -1.98568,11.69578 -4.28673,13.99682 -2.30104,2.30104 -8.04942,3.41374 -13.99682,4.28673 -5.94739,0.87298 -12.04553,1.5533 -15.52315,4.22178 -3.47762,2.66847 -5.67132,8.3806 -8.05385,13.89939 -2.38254,5.51879 -4.94339,10.77845 -7.76158,12.40553 l -0.0325,0.0325 c -2.83003,1.60603 -8.66528,1.18061 -14.61385,0.48713 -5.97068,-0.69606 -12.02545,-1.64501 -16.07523,0.0325 -4.04978,1.67748 -7.66908,6.61975 -11.3988,11.33385 -3.72972,4.71411 -7.57353,9.16012 -10.71682,10.00237 -3.14329,0.84225 -8.66955,-1.0948 -14.25662,-3.31247 -5.58708,-2.21767 -11.20968,-4.69651 -15.55563,-4.12435 -4.34596,0.57215 -9.10914,4.43322 -13.93187,8.02137 -4.82273,3.58816 -9.67097,6.85228 -12.92514,6.85228 -3.25417,0 -8.1024,-3.26412 -12.92514,-6.85228 -4.82273,-3.58815 -9.61839,-7.44922 -13.96434,-8.02137 -4.34595,-0.57216 -9.93608,1.90668 -15.52315,4.12435 -5.58708,2.21767 -11.14581,4.15472 -14.2891,3.31247 l -0.0649,-0.0325 c -3.13173,-0.88315 -6.91408,-5.28665 -10.6194,-9.9699 -3.72972,-4.7141 -7.34902,-9.65637 -11.3988,-11.33385 l -0.0325,0 c -4.04968,-1.66178 -10.08564,-0.72695 -16.04276,-0.0325 -5.9541,0.69412 -11.78675,1.09167 -14.61385,-0.51961 l -0.0325,0 c -2.81819,-1.62708 -5.37904,-6.88674 -7.76157,-12.40553 -2.38254,-5.51879 -4.60871,-11.23092 -8.08633,-13.89939 -3.47763,-2.66848 -9.57577,-3.3488 -15.52316,-4.22178 -5.94739,-0.87299 -11.69577,-1.98569 -13.99682,-4.28673 -2.30104,-2.30104 -3.41374,-8.04943 -4.28673,-13.99682 -0.87118,-5.93517 -1.53455,-12.00947 -4.1893,-15.49068 l 0,-0.0325 c -2.66848,-3.47763 -8.3806,-5.67132 -13.899393,-8.05386 -5.518795,-2.38254 -10.778446,-4.94338 -12.405533,-7.76158 -1.627087,-2.81819 -1.215667,-8.67564 -0.519604,-14.64632 0.694481,-5.95712 1.62931,-11.99308 -0.03248,-16.04276 l 0,-0.0325 c -1.677475,-4.04978 -6.652225,-7.66908 -11.366327,-11.39881 -4.714101,-3.72972 -9.12765,-7.57353 -9.969892,-10.71682 -0.842242,-3.14329 1.062326,-8.66954 3.279997,-14.25662 2.217671,-5.58708 4.696508,-11.20967 4.124353,-15.55563 -0.572155,-4.34595 -4.400754,-9.10914 -7.988904,-13.93187 -3.58815,-4.82273 -6.884746,-9.67096 -6.884746,-12.92513 0,-3.25418 3.296597,-8.10241 6.884746,-12.92514 3.588149,-4.82273 7.416749,-9.61839 7.988904,-13.96435 0.572155,-4.34595 -1.906682,-9.93607 -4.124353,-15.52315 -2.217671,-5.58708 -4.122239,-11.14581 -3.279997,-14.2891 0.842242,-3.14329 5.255792,-6.95462 9.969892,-10.68434 4.714101,-3.72973 9.688852,-7.34903 11.366327,-11.3988 1.677474,-4.04978 0.728538,-10.10456 0.03248,-16.07524 -0.696063,-5.97068 -1.107483,-11.82813 0.519604,-14.64632 1.627086,-2.8182 6.886738,-5.37904 12.405533,-7.76158 5.518793,-2.38254 11.230913,-4.60871 13.899393,-8.08633 2.66848,-3.47762 3.31632,-9.57576 4.1893,-15.52315 0.87299,-5.94739 1.98569,-11.69578 4.28673,-13.99682 2.30105,-2.30105 8.04943,-3.41375 13.99682,-4.28673 5.94739,-0.87299 12.04553,-1.52083 15.52316,-4.1893 3.47762,-2.66848 5.70379,-8.38061 8.08633,-13.8994 2.38253,-5.51879 4.94338,-10.77844 7.76157,-12.40553 l 0.065,-0.0325 c 2.83875,-1.59034 8.6494,-1.17868 14.58138,-0.48712 5.97068,0.69606 12.02545,1.64499 16.07523,-0.0325 4.04978,-1.67747 7.66908,-6.65223 11.3988,-11.36633 3.72973,-4.7141 7.54106,-9.12765 10.68435,-9.96989 3.14329,-0.84224 8.70202,1.06233 14.2891,3.28 5.58707,2.21767 11.1772,4.69651 15.52315,4.12435 4.34595,-0.57215 9.14161,-4.40075 13.96434,-7.9889 4.82274,-3.58815 9.67097,-6.88475 12.92514,-6.88475 z"
       id="path28030"
       inkscape:connector-curvature="0" />
    <path
       transform="matrix(2.0533333,0,0,2.0533333,-237.86667,-866.22144)"
       style="fill:url(#linearGradient5265);fill-opacity:1;stroke:none"
       d="m 335.00001,800.93359 c 0,47.3387 -38.3756,85.71429 -85.71429,85.71429 -47.33869,0 -85.71429,-38.37559 -85.71429,-85.71429 0,-47.33869 38.3756,-85.71428 85.71429,-85.71428 47.33869,0 85.71429,38.37559 85.71429,85.71428 z"
       id="path5263" />
    <path
       transform="matrix(1.4,0,0,1.4,-75.000008,-342.94485)"
       style="fill:url(#linearGradient5257);fill-opacity:1;stroke:none"
       d="m 335.00001,800.93359 c 0,47.3387 -38.3756,85.71429 -85.71429,85.71429 -47.33869,0 -85.71429,-38.37559 -85.71429,-85.71429 0,-47.33869 38.3756,-85.71428 85.71429,-85.71428 47.33869,0 85.71429,38.37559 85.71429,85.71428 z"
       id="path5213" />
    <g
       style="font-size:30px;font-style:normal;font-variant:normal;font-weight:bold;font-stretch:normal;text-align:center;line-height:125%;letter-spacing:-2px;word-spacing:0px;writing-mode:lr-tb;text-anchor:middle;fill:#ffffff;fill-opacity:1;stroke:none;font-family:Inter;-inkscape-font-specification:Inter Bold"
       id="text5549">
      <path
         d="m 129.97399,709.84127 -1.73326,4.25207 12.70687,5.17967 -0.0724,0.17758 -16.26186,3.5415 -1.52817,3.74892 20.20471,8.23601 1.74131,-4.2718 -12.71674,-5.1837 0.0603,-0.14798 16.29988,-3.60653 1.50403,-3.68973 z"
         style="font-size:30px;font-style:normal;font-variant:normal;font-weight:bold;font-stretch:normal;text-align:center;line-height:125%;letter-spacing:-2px;writing-mode:lr-tb;text-anchor:middle;font-family:Inter;-inkscape-font-specification:Inter Bold"
         id="path28281" />
      <path
         d="m 150.21314,704.01048 c 0.94193,0.56776 1.50653,1.25521 1.6938,2.06234 0.18726,0.80716 0.0718,1.57723 -0.34631,2.3102 -0.44067,0.74771 -1.02555,1.20228 -1.75465,1.36369 -0.72911,0.16144 -1.51997,0.006 -2.37258,-0.46502 l -8.33446,-4.78358 -2.2592,3.93622 9.03669,5.18663 c 1.68859,0.93488 3.24879,1.2387 4.68061,0.91144 1.43181,-0.32725 2.57108,-1.21089 3.41781,-2.65091 0.60489,-1.07978 0.87162,-2.12948 0.80016,-3.14911 -0.0715,-1.01962 -0.43532,-1.93375 -1.09157,-2.7424 l 0.0849,-0.14784 2.57795,1.47962 2.16905,-3.77915 -14.19259,-8.14587 -2.25921,3.93622 z"
         style="font-size:30px;font-style:normal;font-variant:normal;font-weight:bold;font-stretch:normal;text-align:center;line-height:125%;letter-spacing:-2px;writing-mode:lr-tb;text-anchor:middle;font-family:Inter;-inkscape-font-specification:Inter Bold"
         id="path28283" />
      <path
         d="m 164.08951,696.46046 c 1.28681,-1.78161 1.85324,-3.52315 1.69927,-5.22463 -0.15398,-1.70146 -0.95997,-3.17118 -2.41798,-4.40917 l -2.55199,3.43944 c 0.61984,0.63818 0.9611,1.30762 1.0238,2.00831 0.0627,0.70071 -0.13886,1.36868 -0.60467,2.00391 -0.64658,0.85654 -1.49447,1.28262 -2.54368,1.27826 -1.04921,-0.004 -2.21013,-0.47052 -3.48277,-1.39849 -1.23987,-0.93709 -2.01034,-1.90564 -2.31141,-2.90565 -0.30106,-0.99999 -0.137,-1.93181 0.49218,-2.79545 0.50739,-0.66407 1.10954,-1.05471 1.80646,-1.17191 0.69691,-0.11718 1.41524,0.0195 2.15499,0.40998 l 2.55199,-3.43943 c -1.61131,-1.04326 -3.25346,-1.37563 -4.92643,-0.99712 -1.67297,0.37855 -3.16362,1.4288 -4.47197,3.15075 -1.46249,2.03628 -2.00154,4.07616 -1.61716,6.11967 0.3844,2.04353 1.59237,3.83416 3.6239,5.37192 2.04271,1.48994 4.09606,2.12632 6.16006,1.90912 2.06399,-0.21718 3.86913,-1.33369 5.41541,-3.34951 z"
         style="font-size:30px;font-style:normal;font-variant:normal;font-weight:bold;font-stretch:normal;text-align:center;line-height:125%;letter-spacing:-2px;writing-mode:lr-tb;text-anchor:middle;font-family:Inter;-inkscape-font-specification:Inter Bold"
         id="path28285" />
      <path
         d="m 172.23988,686.4994 c 0.81476,-0.89115 1.32179,-1.78531 1.52108,-2.68248 0.19928,-0.89715 0.15164,-1.75512 -0.1429,-2.57393 l 0.0872,-0.0935 1.65921,1.54807 2.93623,-3.14705 -8.07014,-7.52955 c -1.4582,-1.2761 -2.96876,-1.72502 -4.53169,-1.34675 -1.56293,0.37831 -2.98214,1.26042 -4.25764,2.64634 -1.33423,1.45348 -2.10594,2.92089 -2.31514,4.40224 -0.20918,1.48139 0.12583,2.8558 1.00503,4.12324 l 3.11282,-2.83657 c -0.29967,-0.49087 -0.41075,-1.03163 -0.33323,-1.62228 0.0775,-0.59063 0.39039,-1.18754 0.93859,-1.79073 0.53335,-0.56512 1.07693,-0.87574 1.63075,-0.93185 0.55381,-0.0561 1.07931,0.14462 1.57649,0.6021 l 0.0467,0.0436 c 0.37816,0.33554 0.42036,0.792 0.12661,1.36939 -0.29376,0.57741 -0.87885,1.4212 -1.75529,2.53136 -1.0594,1.29978 -1.72714,2.63168 -2.00322,3.99569 -0.27607,1.36403 0.22199,2.67626 1.49418,3.93669 1.20604,1.08245 2.44824,1.53658 3.72663,1.36241 1.27838,-0.17417 2.46094,-0.84299 3.54769,-2.00647 z m -1.40349,-3.08711 c -0.4855,0.51873 -0.99422,0.82908 -1.52619,0.93105 -0.53197,0.10199 -1.03052,-0.0554 -1.49566,-0.47205 -0.45638,-0.44037 -0.64709,-0.94979 -0.57213,-1.52825 0.075,-0.57845 0.34959,-1.20011 0.82389,-1.86497 0.31204,-0.43496 0.63961,-0.92465 0.98272,-1.46907 0.34311,-0.54439 0.55347,-0.99045 0.63109,-1.33817 l 1.26973,1.18467 c 0.6289,0.61077 0.93664,1.33442 0.92324,2.17094 -0.0134,0.83655 -0.35898,1.63183 -1.03669,2.38585 z"
         style="font-size:30px;font-style:normal;font-variant:normal;font-weight:bold;font-stretch:normal;text-align:center;line-height:125%;letter-spacing:-2px;writing-mode:lr-tb;text-anchor:middle;font-family:Inter;-inkscape-font-specification:Inter Bold"
         id="path28287" />
      <path
         d="m 179.19662,678.23134 3.55036,-2.82717 -6.1189,-7.68409 c -0.559,-0.72835 -0.81373,-1.45727 -0.76418,-2.18676 0.0496,-0.72947 0.37274,-1.33978 0.96957,-1.83095 0.5974,-0.46406 1.21621,-0.65324 1.85646,-0.56755 0.64025,0.0857 1.2179,0.44344 1.73296,1.07314 l 6.35782,7.98412 3.44201,-2.74089 -6.22509,-7.81745 c -0.5308,-0.67617 -0.7778,-1.3562 -0.741,-2.04008 0.0368,-0.68384 0.37654,-1.28975 1.01925,-1.81773 0.57838,-0.46084 1.19195,-0.65946 1.84071,-0.59587 0.64875,0.0636 1.26267,0.44694 1.84177,1.14992 l 6.29809,7.90912 3.54202,-2.82054 -6.85556,-8.60919 c -1.13059,-1.38056 -2.35967,-2.15584 -3.68722,-2.32583 -1.32758,-0.16994 -2.60005,0.22311 -3.81743,1.17916 -0.94089,0.76458 -1.57691,1.63195 -1.90805,2.6021 -0.33115,0.97019 -0.33762,1.93548 -0.0194,2.89586 l -0.13334,0.10619 c -0.81086,-0.57999 -1.69085,-0.84279 -2.63999,-0.78838 -0.94913,0.0544 -1.87133,0.43131 -2.7666,1.13058 -0.86465,0.69962 -1.43641,1.5073 -1.71526,2.42305 -0.27885,0.91578 -0.25236,1.86332 0.0795,2.84263 l -0.15002,0.11946 -1.7985,-2.25856 -3.38367,2.69444 z"
         style="font-size:30px;font-style:normal;font-variant:normal;font-weight:bold;font-stretch:normal;text-align:center;line-height:125%;letter-spacing:-2px;writing-mode:lr-tb;text-anchor:middle;font-family:Inter;-inkscape-font-specification:Inter Bold"
         id="path28289" />
      <path
         d="m 202.36348,668.10538 3.9416,-2.24982 -4.3412,-7.60562 0.12029,-0.0687 c 0.61888,0.47222 1.39568,0.77917 2.33039,0.92084 0.9347,0.14169 1.97969,-0.097 3.13496,-0.71602 1.65257,-0.95349 2.66117,-2.35824 3.0258,-4.21424 0.36461,-1.85599 -0.11504,-3.98758 -1.43893,-6.39478 -1.43873,-2.41626 -3.05208,-3.92017 -4.84005,-4.51173 -1.78797,-0.59152 -3.48372,-0.42915 -5.08725,0.48713 -1.15594,0.70607 -1.89897,1.50689 -2.2291,2.40245 -0.33013,0.8956 -0.44549,1.72149 -0.34609,2.47768 l -0.1758,0.10035 -1.36257,-2.38717 -3.88608,2.21813 z m -3.23969,-14.63776 c -0.72708,-1.28499 -1.04449,-2.44195 -0.95224,-3.47087 0.0923,-1.0289 0.61543,-1.82536 1.56953,-2.38939 0.98966,-0.53931 1.9514,-0.57816 2.88524,-0.11654 0.93384,0.46164 1.75871,1.31668 2.47464,2.5651 0.71546,1.262 1.03562,2.41841 0.96049,3.46923 -0.0752,1.05084 -0.59228,1.86327 -1.55138,2.43729 -0.96384,0.52817 -1.91776,0.5646 -2.86179,0.10929 -0.94403,-0.45529 -1.78552,-1.32333 -2.52449,-2.60411 z"
         style="font-size:30px;font-style:normal;font-variant:normal;font-weight:bold;font-stretch:normal;text-align:center;line-height:125%;letter-spacing:-2px;writing-mode:lr-tb;text-anchor:middle;font-family:Inter;-inkscape-font-specification:Inter Bold"
         id="path28291" />
      <path
         d="m 232.01966,632.35821 c -1.18186,-2.26937 -2.80519,-3.76099 -4.86999,-4.47487 -2.06482,-0.71383 -4.30728,-0.64427 -6.7274,0.2087 -2.76449,1.01569 -4.70664,2.75046 -5.82644,5.20429 -1.1198,2.45388 -1.10241,5.38067 0.0521,8.78038 1.26609,3.34974 3.10604,5.61871 5.51986,6.8069 2.41381,1.1882 5.0256,1.28921 7.83537,0.30303 2.62065,-1.01751 4.43903,-2.50732 5.45514,-4.46944 1.01609,-1.9621 1.29677,-3.96628 0.84207,-6.01256 l -4.39857,1.55811 c 0.17643,1.18401 -0.0216,2.21602 -0.59397,3.09602 -0.57244,0.88003 -1.44393,1.53426 -2.61448,1.96271 -1.58403,0.56361 -3.05052,0.44818 -4.39948,-0.34629 -1.34897,-0.79446 -2.43048,-2.28787 -3.24455,-4.48025 -0.75128,-2.15548 -0.8649,-3.97975 -0.34085,-5.47282 0.52404,-1.49304 1.58871,-2.53509 3.194,-3.12617 1.20679,-0.42212 2.3154,-0.4559 3.32586,-0.10136 1.01043,0.35458 1.8104,1.06851 2.39991,2.14178 z"
         style="font-size:30px;font-style:normal;font-variant:normal;font-weight:bold;font-stretch:normal;text-align:center;line-height:125%;letter-spacing:-2px;writing-mode:lr-tb;text-anchor:middle;font-family:Inter;-inkscape-font-specification:Inter Bold"
         id="path28293" />
      <path
         d="m 245.35972,644.29788 c 2.44514,-0.55744 4.20365,-1.72518 5.27553,-3.5032 1.07185,-1.77801 1.35429,-3.91981 0.84731,-6.4254 -0.55959,-2.50958 -1.69073,-4.35847 -3.3934,-5.54667 -1.7027,-1.18816 -3.78412,-1.53881 -6.24427,-1.05193 -2.44538,0.55638 -4.20398,1.72368 -5.2758,3.5019 -1.07182,1.77825 -1.35269,3.92743 -0.8426,6.44754 0.55648,2.49505 1.68605,4.33656 3.38869,5.52452 1.70264,1.18797 3.78415,1.53905 6.24454,1.05324 z m -0.71049,-3.44326 c -1.12713,0.21112 -2.06915,-0.0678 -2.82606,-0.83672 -0.75692,-0.76893 -1.28731,-1.86514 -1.59118,-3.28864 -0.30179,-1.42438 -0.26375,-2.6433 0.11411,-3.65675 0.37785,-1.01343 1.12448,-1.65327 2.23989,-1.91954 1.10723,-0.20642 2.03747,0.0768 2.79069,0.84969 0.75321,0.77291 1.28224,1.87123 1.58708,3.29496 0.30081,1.42415 0.26415,2.64096 -0.11001,3.65043 -0.37417,1.00948 -1.10901,1.64501 -2.20452,1.90657 z"
         style="font-size:30px;font-style:normal;font-variant:normal;font-weight:bold;font-stretch:normal;text-align:center;line-height:125%;letter-spacing:-2px;writing-mode:lr-tb;text-anchor:middle;font-family:Inter;-inkscape-font-specification:Inter Bold"
         id="path28295" />
      <path
         d="m 260.16378,641.92709 c 1.30206,-0.14979 2.29673,-0.54926 2.98402,-1.19841 0.68727,-0.64915 1.15061,-1.3441 1.39001,-2.08485 l 0.19103,-0.0168 0.22976,2.61073 4.45734,-0.39227 -1.91278,-21.73484 -4.51041,0.39694 0.71917,8.17179 -0.13797,0.0121 c -0.34933,-0.678 -0.91484,-1.29087 -1.69653,-1.83861 -0.7817,-0.54771 -1.84866,-0.78223 -3.20087,-0.70358 -1.83984,0.16105 -3.32576,0.99411 -4.45775,2.49921 -1.13199,1.50512 -1.6005,3.66038 -1.40552,6.46577 0.28414,2.73251 1.10493,4.75736 2.46235,6.07458 1.35742,1.31723 2.9868,1.89663 4.88815,1.73821 z m 1.1161,-3.72379 c -1.11527,0.075 -2.00322,-0.29785 -2.66388,-1.11847 -0.66067,-0.82062 -1.05669,-1.9533 -1.18806,-3.39803 -0.12329,-1.43385 0.0672,-2.60655 0.57138,-3.51811 0.50421,-0.91154 1.3166,-1.42777 2.43718,-1.54868 1.10541,-0.0803 1.98923,0.27592 2.65147,1.06876 0.66222,0.79287 1.06082,1.92443 1.19579,3.39468 0.12276,1.47357 -0.0739,2.66643 -0.59013,3.57858 -0.5162,0.91217 -1.32078,1.42592 -2.41375,1.54127 z"
         style="font-size:30px;font-style:normal;font-variant:normal;font-weight:bold;font-stretch:normal;text-align:center;line-height:125%;letter-spacing:-2px;writing-mode:lr-tb;text-anchor:middle;font-family:Inter;-inkscape-font-specification:Inter Bold"
         id="path28297" />
      <path
         d="m 271.13134,640.99257 4.53845,-0.0197 -0.071,-16.36399 -4.53844,0.0197 z m 2.19969,-18.4833 c 0.6944,-0.0196 1.27272,-0.24722 1.73494,-0.68272 0.46221,-0.43546 0.7009,-0.97851 0.71606,-1.62915 -0.0208,-0.64533 -0.26417,-1.18318 -0.73013,-1.61355 -0.46599,-0.43032 -1.04625,-0.65242 -1.7408,-0.6663 -0.68931,0.0199 -1.26452,0.247 -1.72563,0.68135 -0.46112,0.43439 -0.69937,0.97433 -0.71477,1.61982 0.021,0.65048 0.26397,1.19144 0.72884,1.62288 0.46487,0.43148 1.04203,0.65403 1.73149,0.66767 z"
         style="font-size:30px;font-style:normal;font-variant:normal;font-weight:bold;font-stretch:normal;text-align:center;line-height:125%;letter-spacing:-2px;writing-mode:lr-tb;text-anchor:middle;font-family:Inter;-inkscape-font-specification:Inter Bold"
         id="path28299" />
      <path
         d="m 282.54532,631.73558 c 0.1015,-1.05757 0.45321,-1.85395 1.05512,-2.38915 0.60189,-0.53517 1.36684,-0.77051 2.29485,-0.70601 0.91549,0.0791 1.60529,0.41587 2.06938,1.01024 0.46408,0.59439 0.65836,1.39488 0.58287,2.40149 l -0.74411,9.58082 4.52487,0.35143 0.8068,-10.38807 c 0.12693,-1.92115 -0.27007,-3.45957 -1.19099,-4.61528 -0.92096,-1.15567 -2.24153,-1.80945 -3.96172,-1.96132 -1.21896,-0.0846 -2.26949,0.11294 -3.1516,0.59273 -0.88212,0.47982 -1.54735,1.18551 -1.9957,2.11708 l -0.19119,-0.0149 0.22356,-2.8785 -4.31243,-0.33493 -1.26712,16.31501 4.52486,0.35143 z"
         style="font-size:30px;font-style:normal;font-variant:normal;font-weight:bold;font-stretch:normal;text-align:center;line-height:125%;letter-spacing:-2px;writing-mode:lr-tb;text-anchor:middle;font-family:Inter;-inkscape-font-specification:Inter Bold"
         id="path28301" />
      <path
         d="m 299.81986,650.00305 c 2.33251,0.47076 4.31757,0.33242 5.95519,-0.41502 1.6376,-0.74745 2.68443,-2.14376 3.1405,-4.18894 l 3.27964,-16.1952 -4.41688,-0.89445 -0.54554,2.69398 -0.16707,-0.0338 c -0.14355,-0.74942 -0.51549,-1.49823 -1.1158,-2.24642 -0.60034,-0.74817 -1.56044,-1.27639 -2.88031,-1.58468 -1.81018,-0.36633 -3.47091,0.009 -4.98221,1.12566 -1.51131,1.1168 -2.5688,3.03544 -3.17248,5.7559 -0.49348,2.66943 -0.25991,4.76799 0.7007,6.29567 0.96061,1.52769 2.36752,2.47522 4.22075,2.84258 1.27847,0.23195 2.34195,0.16696 3.19042,-0.19498 0.84845,-0.36195 1.48569,-0.85838 1.91171,-1.4893 l 0.18795,0.0381 -0.59418,2.93414 c -0.23952,1.08764 -0.71398,1.80907 -1.42338,2.1643 -0.70942,0.35522 -1.55527,0.42805 -2.53755,0.21849 -0.97123,-0.21276 -1.68725,-0.54843 -2.14806,-1.00703 -0.46083,-0.4586 -0.72829,-0.95616 -0.80238,-1.4927 l -4.22614,-0.27971 c 0.007,1.34605 0.53973,2.55821 1.59928,3.63649 1.05954,1.07827 2.66815,1.8506 4.82584,2.31699 z m 2.10278,-9.90066 c -1.09236,-0.23638 -1.84542,-0.80963 -2.25918,-1.71977 -0.41377,-0.91013 -0.48116,-2.06468 -0.20216,-3.46363 0.2834,-1.38491 0.79557,-2.44021 1.53653,-3.16588 0.74094,-0.72566 1.66595,-0.98808 2.77502,-0.78728 1.08258,0.23759 1.8295,0.82772 2.24077,1.7704 0.41124,0.9427 0.4756,2.12561 0.19308,3.54875 -0.29544,1.42416 -0.81351,2.46829 -1.55421,3.13241 -0.74073,0.66411 -1.65068,0.89245 -2.72985,0.685 z"
         style="font-size:30px;font-style:normal;font-variant:normal;font-weight:bold;font-stretch:normal;text-align:center;line-height:125%;letter-spacing:-2px;writing-mode:lr-tb;text-anchor:middle;font-family:Inter;-inkscape-font-specification:Inter Bold"
         id="path28303" />
      <path
         d="m 315.38709,647.07911 8.71206,3.31662 c 2.3084,0.84222 4.25392,0.97203 5.83655,0.38944 1.5826,-0.5826 2.69202,-1.70015 3.32827,-3.35266 0.53664,-1.53509 0.5322,-2.89713 -0.0133,-4.08613 -0.54555,-1.189 -1.40667,-2.045 -2.58334,-2.56801 l 0.0758,-0.19913 c 1.17331,0.17001 2.23892,0.0147 3.19683,-0.46586 0.95787,-0.48057 1.67617,-1.3181 2.15492,-2.51261 0.59116,-1.55541 0.50241,-3.02412 -0.26626,-4.40614 -0.7687,-1.382 -2.27347,-2.51486 -4.51429,-3.39858 l -8.16445,-3.10815 z m 5.65304,-1.8834 2.06198,-5.41641 3.61427,1.37592 c 1.04024,0.41288 1.75584,0.99357 2.14681,1.74207 0.39094,0.74851 0.42865,1.55276 0.11314,2.41277 -0.28903,0.77915 -0.79772,1.28942 -1.52608,1.53081 -0.72839,0.2414 -1.69353,0.13902 -2.89543,-0.30714 z m 3.17258,-8.33371 1.92174,-5.04802 3.27573,1.24705 c 0.95727,0.37632 1.6098,0.88312 1.95761,1.52042 0.34777,0.63732 0.38214,1.33058 0.10311,2.07979 -0.32777,0.80668 -0.86125,1.32841 -1.60045,1.5652 -0.73923,0.2368 -1.55978,0.18756 -2.46166,-0.14771 z"
         style="font-size:30px;font-style:normal;font-variant:normal;font-weight:bold;font-stretch:normal;text-align:center;line-height:125%;letter-spacing:-2px;writing-mode:lr-tb;text-anchor:middle;font-family:Inter;-inkscape-font-specification:Inter Bold"
         id="path28305" />
      <path
         d="m 338.28436,657.28058 c 2.23109,1.14531 4.32872,1.3817 6.29291,0.7092 1.96416,-0.67251 3.55765,-2.13123 4.78047,-4.37615 1.1851,-2.28182 1.50764,-4.42514 0.96764,-6.42996 -0.54004,-2.00482 -1.90866,-3.61172 -4.10586,-4.82072 -2.23058,-1.14628 -4.32801,-1.38307 -6.29228,-0.71038 -1.96428,0.67272 -3.56132,2.13809 -4.7911,4.39614 -1.17813,2.2687 -1.49714,4.40535 -0.95701,6.40998 0.54012,2.00462 1.90853,3.61192 4.10523,4.82189 z m 1.66989,-3.09391 c -0.99898,-0.56306 -1.5411,-1.38239 -1.62636,-2.45799 -0.0853,-1.07559 0.21338,-2.25618 0.89598,-3.54178 0.68475,-1.28493 1.49764,-2.194 2.43869,-2.7272 0.94102,-0.53318 1.92426,-0.54313 2.94972,-0.0299 0.98072,0.55387 1.51103,1.36892 1.59094,2.44517 0.0799,1.07626 -0.22119,2.25759 -0.90319,3.54398 -0.68535,1.28414 -1.49584,2.19247 -2.43148,2.725 -0.93567,0.53253 -1.9071,0.54676 -2.9143,0.0427 z"
         style="font-size:30px;font-style:normal;font-variant:normal;font-weight:bold;font-stretch:normal;text-align:center;line-height:125%;letter-spacing:-2px;writing-mode:lr-tb;text-anchor:middle;font-family:Inter;-inkscape-font-specification:Inter Bold"
         id="path28307" />
      <path
         d="m 352.23503,665.80836 c 2.07882,1.40284 4.13337,1.88736 6.16367,1.45355 2.03027,-0.43382 3.78613,-1.6924 5.26759,-3.77573 1.4484,-2.12445 2.02388,-4.21411 1.72647,-6.26897 -0.29745,-2.05486 -1.46497,-3.81331 -3.50256,-5.27537 -2.07821,-1.40375 -4.13251,-1.88863 -6.16291,-1.45464 -2.03042,0.43401 -3.79059,1.69878 -5.28053,3.79431 -1.43991,2.11225 -2.01109,4.19571 -1.71353,6.25039 0.29756,2.05468 1.46482,3.8135 3.5018,5.27646 z m 2.02645,-2.87304 c -0.92482,-0.67802 -1.36552,-1.55607 -1.32208,-2.63417 0.0434,-1.07809 0.48054,-2.21472 1.31138,-3.40988 0.83289,-1.19424 1.74826,-2.00004 2.7461,-2.41738 0.99782,-0.41733 1.97525,-0.31012 2.93229,0.32163 0.90778,0.66672 1.33726,1.53913 1.28843,2.61723 -0.0489,1.07811 -0.48846,2.21518 -1.31879,3.41121 -0.8334,1.19338 -1.74629,1.99873 -2.73869,2.41605 -0.99243,0.41732 -1.95864,0.31576 -2.89864,-0.30469 z"
         style="font-size:30px;font-style:normal;font-variant:normal;font-weight:bold;font-stretch:normal;text-align:center;line-height:125%;letter-spacing:-2px;writing-mode:lr-tb;text-anchor:middle;font-family:Inter;-inkscape-font-specification:Inter Bold"
         id="path28309" />
      <path
         d="m 376.88917,664.02272 -2.34951,-1.98987 2.53381,-2.99177 -3.46329,-2.93317 -2.53382,2.99177 -1.70726,-1.44593 -2.20332,2.60154 1.70726,1.44592 -5.5083,6.50385 c -1.02837,1.23312 -1.4224,2.46421 -1.18211,3.69329 0.24029,1.22908 1.01884,2.35732 2.33567,3.38474 0.46514,0.35846 0.88352,0.63717 1.25514,0.83615 0.3716,0.19896 0.67102,0.34202 0.89826,0.42918 l 1.63796,-3.03847 c -0.10635,-0.0575 -0.25018,-0.13974 -0.43148,-0.24676 -0.18132,-0.10703 -0.35688,-0.23012 -0.52667,-0.36927 -0.35886,-0.28822 -0.56978,-0.60996 -0.63276,-0.96521 -0.063,-0.35526 0.10196,-0.77051 0.49487,-1.24575 l 5.12272,-6.04858 2.34951,1.98987 z"
         style="font-size:30px;font-style:normal;font-variant:normal;font-weight:bold;font-stretch:normal;text-align:center;line-height:125%;letter-spacing:-2px;writing-mode:lr-tb;text-anchor:middle;font-family:Inter;-inkscape-font-specification:Inter Bold"
         id="path28311" />
      <path
         d="m 372.04555,682.58644 c 1.56021,1.54781 3.19269,2.37775 4.89745,2.48982 1.70474,0.11205 3.28177,-0.45599 4.73111,-1.70411 l -3.00152,-3.05504 c -0.72668,0.51323 -1.44098,0.74643 -2.14291,0.69958 -0.70195,-0.0469 -1.33052,-0.34968 -1.88573,-0.90846 -0.74577,-0.77172 -1.03505,-1.67549 -0.86784,-2.71129 0.1672,-1.03581 0.80795,-2.11028 1.92225,-3.22342 1.11823,-1.07935 2.19465,-1.6901 3.22928,-1.83226 1.03461,-0.14216 1.92965,0.16458 2.68514,0.92022 0.57724,0.60434 0.86966,1.25984 0.87724,1.9665 0.008,0.70666 -0.23898,1.39506 -0.73959,2.06521 l 3.00152,3.05504 c 1.28077,-1.42981 1.86407,-3.00043 1.74988,-4.71189 -0.11422,-1.71145 -0.9203,-3.34709 -2.41825,-4.90692 -1.78452,-1.76089 -3.71598,-2.61011 -5.79438,-2.54766 -2.07843,0.0625 -4.0349,0.97778 -5.86942,2.74594 -1.78901,1.78661 -2.73647,3.71626 -2.84236,5.78895 -0.1059,2.07269 0.71681,4.02929 2.46813,5.86979 z"
         style="font-size:30px;font-style:normal;font-variant:normal;font-weight:bold;font-stretch:normal;text-align:center;line-height:125%;letter-spacing:-2px;writing-mode:lr-tb;text-anchor:middle;font-family:Inter;-inkscape-font-specification:Inter Bold"
         id="path28313" />
      <path
         d="m 380.62143,692.18361 c 0.75391,0.9432 1.55854,1.58286 2.4139,1.91898 0.85535,0.3361 1.71033,0.4222 2.56493,0.2583 l 0.0788,0.10067 -1.78681,1.39884 2.6532,3.38908 8.69081,-6.80376 c 1.48696,-1.24248 2.16488,-2.66506 2.03376,-4.26776 -0.13115,-1.60271 -0.78231,-3.14162 -1.95348,-4.61676 -1.22879,-1.54365 -2.55865,-2.53376 -3.98959,-2.97033 -1.43097,-0.43656 -2.84072,-0.31892 -4.22926,0.35292 l 2.31909,3.51535 c 0.53143,-0.21986 1.08288,-0.24567 1.65434,-0.0774 0.57144,0.16825 1.11256,0.56997 1.62336,1.20514 0.4755,0.6146 0.69798,1.1998 0.66746,1.75561 -0.0306,0.55581 -0.31038,1.04379 -0.83948,1.46394 l -0.0503,0.0394 c -0.39016,0.32149 -0.84764,0.29234 -1.37244,-0.0875 -0.52483,-0.37981 -1.26759,-1.08877 -2.22827,-2.12688 -1.11961,-1.2483 -2.33173,-2.11466 -3.63637,-2.59909 -1.30466,-0.48442 -2.67829,-0.19606 -4.12089,0.8651 -1.25651,1.02342 -1.89793,2.1801 -1.92427,3.47002 -0.0263,1.28992 0.45083,2.56196 1.43154,3.81611 z m 3.26753,-0.90736 c -0.4371,-0.56012 -0.66473,-1.11085 -0.68291,-1.65219 -0.0182,-0.54135 0.21464,-1.00945 0.69846,-1.40428 0.50587,-0.3825 1.03872,-0.49184 1.59854,-0.32801 0.5598,0.16383 1.1313,0.53162 1.71449,1.10336 0.38127,0.37576 0.81418,0.77536 1.29876,1.19881 0.48454,0.42344 0.89255,0.70048 1.224,0.83113 l -1.36737,1.07048 c -0.70098,0.52648 -1.46362,0.71819 -2.28793,0.57511 -0.82433,-0.14308 -1.55634,-0.60789 -2.19604,-1.39441 z"
         style="font-size:30px;font-style:normal;font-variant:normal;font-weight:bold;font-stretch:normal;text-align:center;line-height:125%;letter-spacing:-2px;writing-mode:lr-tb;text-anchor:middle;font-family:Inter;-inkscape-font-specification:Inter Bold"
         id="path28315" />
      <path
         d="m 387.71211,700.33817 2.23946,3.94749 8.54363,-4.84693 c 0.80655,-0.43869 1.56626,-0.57673 2.27912,-0.41413 0.71284,0.16261 1.26534,0.57694 1.65752,1.24301 0.36531,0.66241 0.45577,1.30314 0.27136,1.92222 -0.18443,0.61907 -0.62778,1.13393 -1.33003,1.54459 l -8.87722,5.03618 2.17113,3.82703 8.69189,-4.93104 c 0.75062,-0.41897 1.46083,-0.557 2.13062,-0.41409 0.66975,0.14288 1.21533,0.57289 1.63672,1.29002 0.3651,0.64312 0.46569,1.28014 0.30179,1.91107 -0.16393,0.63091 -0.63821,1.17761 -1.42283,1.64011 l -8.79382,4.98887 2.23421,3.93822 9.5722,-5.43045 c 1.53986,-0.90168 2.49717,-1.99495 2.87193,-3.27981 0.37472,-1.28488 0.18472,-2.60306 -0.56997,-3.95452 -0.60865,-1.04854 -1.36633,-1.81193 -2.27303,-2.29018 -0.90675,-0.47827 -1.85924,-0.63507 -2.85747,-0.47039 l -0.0841,-0.14827 c 0.69924,-0.71058 1.09593,-1.53888 1.19007,-2.4849 0.0941,-0.94603 -0.13447,-1.91568 -0.68571,-2.90897 -0.55635,-0.9631 -1.26508,-1.65372 -2.1262,-2.07185 -0.86115,-0.41813 -1.80125,-0.53959 -2.8203,-0.36439 l -0.0946,-0.1668 2.5112,-1.42463 -2.13433,-3.76217 z"
         style="font-size:30px;font-style:normal;font-variant:normal;font-weight:bold;font-stretch:normal;text-align:center;line-height:125%;letter-spacing:-2px;writing-mode:lr-tb;text-anchor:middle;font-family:Inter;-inkscape-font-specification:Inter Bold"
         id="path28317" />
      <path
         d="m 394.10036,724.79555 1.60411,4.24555 8.19212,-3.09526 0.0489,0.12956 c -0.5634,0.53721 -0.98832,1.25629 -1.27477,2.15724 -0.28646,0.90093 -0.21454,1.97041 0.21573,3.20843 0.68265,1.78161 1.91192,2.99795 3.68781,3.64903 1.77589,0.65104 3.95631,0.51148 6.54129,-0.41869 2.61192,-1.04217 4.35015,-2.39982 5.21468,-4.07294 0.86449,-1.67314 0.96995,-3.37338 0.31637,-5.10073 -0.51613,-1.25232 -1.19057,-2.11171 -2.02331,-2.57814 -0.83277,-0.46644 -1.63037,-0.70985 -2.39279,-0.73022 l -0.0716,-0.18936 2.57125,-0.9715 -1.58152,-4.18576 z m 14.96464,-0.90501 c 1.38308,-0.51665 2.57549,-0.64877 3.57724,-0.39636 1.00171,0.25241 1.70631,0.89397 2.1138,1.92469 0.3775,1.06196 0.26511,2.01791 -0.33719,2.86784 -0.60233,0.84992 -1.5761,1.53056 -2.92132,2.04193 -1.35855,0.50878 -2.55085,0.64371 -3.5769,0.40477 -1.02607,-0.23895 -1.74739,-0.87704 -2.16397,-1.91427 -0.37055,-1.03472 -0.25699,-1.98256 0.34068,-2.84354 0.59766,-0.86098 1.58687,-1.556 2.96766,-2.08506 z"
         style="font-size:30px;font-style:normal;font-variant:normal;font-weight:bold;font-stretch:normal;text-align:center;line-height:125%;letter-spacing:-2px;writing-mode:lr-tb;text-anchor:middle;font-family:Inter;-inkscape-font-specification:Inter Bold"
         id="path28319" />
    </g>
    <path
       transform="matrix(1.1814593e-8,1.8133333,-1.8133333,1.1814593e-8,1713.3571,313.09941)"
       style="fill:#d6d6d6;fill-opacity:0;stroke:none"
       d="m 332.34018,793.76312 c 0,41.84189 -33.91955,75.76145 -75.76144,75.76145 -41.84189,0 -75.76145,-33.91956 -75.76145,-75.76145 0,-41.84189 33.91956,-75.76144 75.76145,-75.76144 41.84189,0 75.76144,33.91955 75.76144,75.76144 z"
       id="path5553" />
    <path
       transform="matrix(1.3552033e-8,-2.08,-2.08,-1.3552033e-8,1925.0273,1312.046)"
       style="fill:#d6d6d6;fill-opacity:0;stroke:none"
       d="m 332.34018,793.76312 c 0,41.84189 -33.91955,75.76145 -75.76144,75.76145 -41.84189,0 -75.76145,-33.91956 -75.76145,-75.76145 0,-41.84189 33.91956,-75.76144 75.76145,-75.76144 41.84189,0 75.76144,33.91955 75.76144,75.76144 z"
       id="path5663" />
    <g
       style="font-size:30px;font-style:normal;font-variant:normal;font-weight:bold;font-stretch:normal;text-align:center;line-height:125%;letter-spacing:-1px;word-spacing:0px;writing-mode:lr-tb;text-anchor:middle;fill:#ffffff;fill-opacity:1;stroke:none;font-family:Inter;-inkscape-font-specification:Inter Bold"
       id="text5549-1-4">
      <path
         d="m 120.05239,812.63527 5.22246,0.31896 1.97582,7.62116 -4.40969,2.81613 1.24057,4.78514 19.23302,-12.75643 -1.49188,-5.75454 -23.01087,-1.81555 z m 9.00229,0.54969 8.66617,0.52676 0.0428,0.165 -7.31866,4.67089 z"
         style=""
         id="path28224" />
      <path
         d="m 143.27054,832.10344 -1.13226,-3.04574 1.02856,-0.38237 c 0.51983,-0.20296 0.96958,-0.2314 1.34927,-0.0853 0.37964,0.14609 0.68577,0.52624 0.91838,1.14045 0.0938,0.25944 0.16359,0.51718 0.20931,0.77322 0.0457,0.25603 0.0722,0.48155 0.0796,0.67653 l 3.47395,-0.43899 c -0.0149,-0.30752 -0.0751,-0.74453 -0.1805,-1.31104 -0.10549,-0.56651 -0.27799,-1.1834 -0.5175,-1.85067 -0.54569,-1.47293 -1.40189,-2.51999 -2.5686,-3.14117 -1.16676,-0.62118 -2.58858,-0.63676 -4.26546,-0.0468 l -1.10845,0.41207 -0.80558,-2.16697 -3.19553,1.18795 0.80558,2.16696 -12.14301,4.51419 1.58146,4.25405 12.143,-4.51419 1.13226,3.04574 z"
         style=""
         id="path28226" />
      <path
         d="m 147.15724,840.71156 -1.33463,-2.96265 1.00051,-0.45071 c 0.50499,-0.23748 0.95181,-0.29611 1.34046,-0.1759 0.38862,0.12021 0.71963,0.4789 0.99304,1.07606 0.11107,0.25255 0.19802,0.50501 0.26086,0.75739 0.0628,0.25238 0.10444,0.4756 0.12493,0.66965 l 3.43654,-0.67174 c -0.0356,-0.30582 -0.12498,-0.7378 -0.2683,-1.29593 -0.14337,-0.55813 -0.35698,-1.16201 -0.64085,-1.81165 -0.64356,-1.43288 -1.56827,-2.41996 -2.77413,-2.96123 -1.20591,-0.54126 -2.62555,-0.46115 -4.25894,0.24034 l -1.07821,0.48572 -0.94956,-2.10785 -3.10835,1.40026 0.94955,2.10785 -11.81175,5.32099 1.86409,4.138 11.81176,-5.32099 1.33462,2.96265 z"
         style=""
         id="path28228" />
      <path
         d="m 136.27088,855.64756 c 1.26091,2.16785 2.89971,3.49837 4.9164,3.99157 2.01668,0.49317 4.1453,0.12438 6.38589,-1.10637 2.22872,-1.28217 3.65642,-2.91298 4.28311,-4.89241 0.62665,-1.97946 0.34097,-4.07078 -0.85705,-6.27399 -1.25997,-2.1684 -2.89839,-3.49913 -4.91525,-3.99221 -2.01689,-0.49308 -4.1521,-0.12059 -6.40562,1.11746 -2.21578,1.27488 -3.6369,2.90198 -4.26338,4.88132 -0.62648,1.97933 -0.34118,4.07088 0.8559,6.27463 z m 3.07498,-1.7045 c -0.53748,-1.01297 -0.55203,-1.99531 -0.0436,-2.947 0.50836,-0.9517 1.39666,-1.78473 2.66489,-2.49907 1.26968,-0.71263 2.44453,-1.03964 3.52454,-0.98102 1.07999,0.0586 1.9133,0.58059 2.49992,1.56593 0.52706,0.99539 0.53397,1.96776 0.0207,2.91712 -0.51327,0.94934 -1.40398,1.78169 -2.67214,2.49703 -1.26976,0.71163 -2.44219,1.03932 -3.51729,0.98305 -1.07513,-0.0563 -1.90079,-0.56829 -2.477,-1.53604 z"
         style=""
         id="path28230" />
      <path
         d="m 141.67823,864.08277 2.57413,3.73788 7.62493,-5.25098 c 0.85323,-0.56387 1.71334,-0.75734 2.58033,-0.58042 0.86698,0.17692 1.5965,0.68136 2.18857,1.5133 0.18489,0.27124 0.36114,0.56865 0.52875,0.89224 0.16758,0.32358 0.28661,0.59896 0.3571,0.82612 l 3.31671,-2.28408 c -0.0779,-0.19885 -0.17731,-0.41124 -0.2981,-0.63715 -0.12083,-0.22591 -0.24749,-0.43566 -0.37999,-0.62926 -0.5283,-0.7632 -1.20324,-1.28151 -2.02481,-1.55492 -0.8216,-0.2734 -1.73809,-0.25023 -2.74946,0.0695 l -0.0967,-0.14039 2.35154,-1.6194 -2.49558,-3.62382 z"
         style=""
         id="path28232" />
      <path
         d="m 151.69489,878.17435 c 0.86658,0.98327 1.76257,1.57163 2.68796,1.76507 0.92537,0.19343 1.76045,0.17687 2.50524,-0.0497 l 0.1229,0.14721 -2.01186,1.67962 2.86764,3.43488 16.74913,-13.98317 -2.90178,-3.47577 -6.29728,5.25735 -0.0888,-0.10632 c 0.35704,-0.67398 0.53716,-1.4882 0.54036,-2.44269 0.003,-0.95448 -0.41368,-1.96425 -1.25051,-3.02933 -1.18295,-1.4183 -2.71542,-2.16227 -4.5974,-2.23191 -1.88201,-0.0696 -3.91877,0.77667 -6.11029,2.53892 -2.08076,1.79381 -3.27415,3.62399 -3.58018,5.49054 -0.30603,1.86655 0.14891,3.53497 1.36483,5.00526 z m 3.69418,-1.21053 c -0.69849,-0.87267 -0.89957,-1.81449 -0.60325,-2.82548 0.29631,-1.01098 0.99992,-1.98295 2.11084,-2.91589 1.10658,-0.9201 2.178,-1.4335 3.21424,-1.5402 1.03621,-0.10671 1.92393,0.26534 2.66316,1.11614 0.69726,0.86152 0.90958,1.79049 0.63697,2.7869 -0.27264,0.99642 -0.97386,1.96986 -2.10367,2.92033 -1.1395,0.94234 -2.23102,1.46213 -3.27458,1.55935 -1.04358,0.0972 -1.92482,-0.26984 -2.64371,-1.10115 z"
         style=""
         id="path28234" />
      <path
         d="m 162.89374,890.56934 c 0.87822,0.82869 1.76429,1.34973 2.6582,1.56312 0.8939,0.21338 1.75252,0.17926 2.57587,-0.10236 l 0.0921,0.0887 -1.574,1.63463 3.10043,2.98542 7.65567,-7.95061 c 1.2989,-1.43793 1.77155,-2.94124 1.41793,-4.50993 -0.35366,-1.56869 -1.21332,-3.00161 -2.57898,-4.29876 -1.4323,-1.35695 -2.88738,-2.15167 -4.36526,-2.38417 -1.4779,-0.23248 -2.85742,0.0808 -4.13854,0.93999 l 2.78721,3.1571 c 0.49553,-0.29191 1.03797,-0.39446 1.62733,-0.30765 0.58933,0.0868 1.18124,0.40904 1.77573,0.96666 0.55665,0.54219 0.85867,1.09059 0.90606,1.64522 0.0473,0.55463 -0.1616,1.0769 -0.62685,1.56681 l -0.0443,0.046 c -0.34145,0.37282 -0.79852,0.40783 -1.37121,0.10503 -0.57272,-0.30281 -1.40719,-0.90111 -2.50341,-1.79492 -1.28294,-1.07974 -2.60416,-1.76836 -3.96366,-2.06588 -1.35952,-0.29751 -2.67943,0.17983 -3.95972,1.43202 -1.1013,1.18885 -1.57494,2.42375 -1.42091,3.70472 0.15402,1.28096 0.80414,2.4739 1.95036,3.57884 z m 3.10882,-1.35472 c -0.51102,-0.4936 -0.81332,-1.00715 -0.90691,-1.54066 -0.0936,-0.5335 0.0716,-1.02952 0.49554,-1.48804 0.44751,-0.44939 0.95986,-0.63206 1.53708,-0.548 0.5772,0.0841 1.19445,0.36844 1.85176,0.85315 0.42999,0.31885 0.91447,0.65409 1.45342,1.00573 0.53892,0.35163 0.98161,0.56899 1.32806,0.65208 l -1.20451,1.25091 c -0.62059,0.61921 -1.34899,0.91553 -2.1852,0.88895 -0.83624,-0.0266 -1.62598,-0.38462 -2.36924,-1.07412 z"
         style=""
         id="path28236" />
      <path
         d="m 171.70594,898.47658 3.54093,2.73561 1.60229,-2.07397 0.16018,0.12375 c -0.1982,0.75282 -0.18314,1.58792 0.0452,2.50533 0.22831,0.91739 0.85015,1.79047 1.86553,2.61924 1.51523,1.1594 3.19966,1.55088 5.05331,1.17445 1.85362,-0.37645 3.63733,-1.63824 5.35114,-3.78538 1.67803,-2.25664 2.44666,-4.32397 2.30589,-6.20198 -0.14083,-1.87802 -0.94225,-3.38123 -2.40429,-4.50965 -1.09599,-0.79594 -2.12081,-1.17427 -3.07448,-1.13499 -0.95369,0.0393 -1.76052,0.25011 -2.42049,0.63241 l -0.1096,-0.0847 5.01529,-6.49171 -3.59151,-2.77469 z m 8.5179,-3.75877 c 0.90703,-1.16497 1.85323,-1.90253 2.83863,-2.21267 0.98537,-0.31013 1.92171,-0.13311 2.80902,0.53106 0.87814,0.70649 1.28351,1.5795 1.21611,2.61902 -0.0674,1.03952 -0.53992,2.12959 -1.41747,3.27022 -0.89025,1.14541 -1.8349,1.8853 -2.83394,2.21966 -0.99906,0.33435 -1.94781,0.16905 -2.84627,-0.4959 -0.85794,-0.68693 -1.25808,-1.55365 -1.2004,-2.60015 0.0576,-1.0465 0.53576,-2.15691 1.43432,-3.33124 z"
         style=""
         id="path28238" />
      <path
         d="m 201.83195,893.40443 -3.80096,-2.48003 -11.9228,18.27317 3.80096,2.48004 z"
         style=""
         id="path28240" />
      <path
         d="m 198.43687,917.04604 c 1.79785,0.96458 3.47384,1.36489 5.02799,1.20094 1.55411,-0.16397 2.84788,-0.83907 3.88129,-2.0253 l -3.54712,-2.26148 c -0.50791,0.43353 -1.0785,0.65876 -1.71178,0.67568 -0.6333,0.0169 -1.28522,-0.15787 -1.95576,-0.52439 -1.00025,-0.56204 -1.62144,-1.30425 -1.86357,-2.22662 -0.24215,-0.92237 -0.0726,-1.92653 0.50858,-3.01246 l 0.005,-0.009 9.77062,5.35906 0.59943,-1.09289 c 1.29256,-2.46094 1.64293,-4.64126 1.0511,-6.54096 -0.59186,-1.89969 -1.8582,-3.38104 -3.79901,-4.44405 -2.15508,-1.13949 -4.21796,-1.38089 -6.18865,-0.72421 -1.97072,0.6567 -3.58519,2.10114 -4.84344,4.33333 -1.24003,2.30927 -1.59333,4.4571 -1.0599,6.44347 0.53341,1.98638 1.90844,3.60278 4.1251,4.84922 z m 1.69732,-10.64898 c 0.51476,-0.80744 1.20095,-1.33481 2.05857,-1.5821 0.85759,-0.24728 1.73998,-0.13543 2.64715,0.33555 0.86899,0.49715 1.4209,1.15984 1.65571,1.98806 0.23478,0.82823 0.1226,1.68259 -0.33653,2.56307 z"
         style=""
         id="path28242" />
      <path
         d="m 217.86882,906.50505 6.27746,2.28351 -6.15855,16.93013 4.28509,1.55876 6.15856,-16.93013 6.27746,2.28351 1.30018,-3.57425 -16.84002,-6.12578 z"
         style=""
         id="path28244" />
      <path
         d="m 242.1924,925.64571 c -0.27537,1.06478 -0.77312,1.80208 -1.49325,2.21188 -0.72016,0.40981 -1.49115,0.51892 -2.31297,0.32733 -0.84237,-0.20897 -1.44493,-0.63982 -1.8077,-1.29254 -0.36278,-0.65272 -0.43989,-1.45493 -0.23135,-2.40663 l 2.20634,-9.35296 -4.41724,-1.04202 -2.39225,10.14101 c -0.41414,1.88516 -0.2601,3.46718 0.46213,4.74608 0.72223,1.2789 1.89423,2.11864 3.516,2.51923 1.2075,0.27162 2.28966,0.2277 3.24651,-0.13174 0.95683,-0.35945 1.72912,-0.96904 2.31688,-1.82877 l 0.1659,0.0391 -0.68245,2.89298 4.24098,1.00044 3.75714,-15.92698 -4.41725,-1.04202 z"
         style=""
         id="path28246" />
      <path
         d="m 247.60666,933.76193 4.48571,0.69018 2.48851,-16.17382 -4.48571,-0.69017 z m 5.06268,-17.91201 c 0.68894,0.0892 1.29572,-0.0452 1.82036,-0.40304 0.52461,-0.35784 0.84527,-0.85689 0.96198,-1.49715 0.0804,-0.64065 -0.0759,-1.20994 -0.46886,-1.70787 -0.39296,-0.49789 -0.93136,-0.80799 -1.6152,-0.93029 -0.68394,-0.0881 -1.28759,0.0462 -1.81094,0.40314 -0.52337,0.35695 -0.84311,0.853 -0.95925,1.48814 -0.081,0.64576 0.0744,1.21806 0.46612,1.71688 0.39169,0.49886 0.92695,0.80892 1.60579,0.93019 z"
         style=""
         id="path28248" />
      <path
         d="m 264.90991,919.37213 -3.06468,-0.29588 0.37676,-3.90243 -4.51748,-0.43614 -0.37677,3.90242 -2.22693,-0.215 -0.32762,3.39342 2.22693,0.215 -0.81905,8.48354 c -0.14215,1.59935 0.23576,2.83549 1.13373,3.70843 0.89797,0.87294 2.18074,1.35624 3.84833,1.4499 0.5865,0.0294 1.08913,0.02 1.50788,-0.0284 0.41874,-0.0483 0.7463,-0.10143 0.98269,-0.15933 l -0.38594,-3.43019 c -0.12016,0.0134 -0.28522,0.0278 -0.49519,0.0432 -0.20998,0.0154 -0.42439,0.0143 -0.64322,-0.003 -0.45914,-0.0323 -0.81582,-0.17643 -1.07005,-0.43243 -0.25425,-0.256 -0.35538,-0.69122 -0.30341,-1.30566 l 0.76172,-7.88969 3.06468,0.29588 z"
         style=""
         id="path28250" />
      <path
         d="m 265.29502,935.72567 4.53482,0.18254 0.65815,-16.3509 -4.53482,-0.18253 z m 3.02104,-18.36693 c 0.69459,0.0113 1.28247,-0.19026 1.76364,-0.60474 0.48115,-0.41444 0.7438,-0.94631 0.78793,-1.59563 0.008,-0.64561 -0.21118,-1.19377 -0.65751,-1.64447 -0.44635,-0.45066 -1.01614,-0.69839 -1.70938,-0.7432 -0.68951,-0.0109 -1.27427,0.19041 -1.75428,0.60378 -0.48001,0.41341 -0.74208,0.9422 -0.78622,1.58637 -0.008,0.65076 0.21062,1.20201 0.65581,1.65374 0.44518,0.45176 1.01185,0.69981 1.70001,0.74415 z"
         style=""
         id="path28252" />
      <path
         d="m 279.84033,936.15964 c 2.50462,-0.12787 4.43801,-0.9752 5.80017,-2.54198 1.36214,-1.56677 2.00933,-3.62789 1.94159,-6.18335 -0.11889,-2.56847 -0.91459,-4.58458 -2.38711,-6.04834 -1.47255,-1.46374 -3.46244,-2.16772 -5.96968,-2.11195 -2.50467,0.12678 -4.43808,0.97366 -5.80022,2.54065 -1.36214,1.56701 -2.00906,3.63567 -1.94076,6.20598 0.11833,2.55362 0.91376,4.56219 2.38628,6.02571 1.47253,1.46354 3.46243,2.16796 5.96973,2.11328 z m -0.10667,-3.51418 c -1.14666,0.0138 -2.02654,-0.42324 -2.63966,-1.31107 -0.61314,-0.88783 -0.94675,-2.05903 -1.00083,-3.5136 -0.0519,-1.45507 0.19556,-2.64921 0.74236,-3.58241 0.5468,-0.93318 1.39249,-1.43484 2.53709,-1.50497 1.12625,-0.0126 1.99378,0.42667 2.6026,1.31776 0.60879,0.89111 0.94069,2.06415 0.9957,3.51911 0.051,1.45468 -0.19478,2.64698 -0.73724,3.5769 -0.54249,0.92993 -1.37583,1.42936 -2.50002,1.49828 z"
         style=""
         id="path28254" />
      <path
         d="m 292.93696,925.31751 c -0.1364,-1.05364 0.0292,-1.90832 0.49697,-2.56405 0.4677,-0.6557 1.16109,-1.05537 2.08018,-1.19901 0.91015,-0.12659 1.65759,0.0482 2.24232,0.52438 0.58471,0.47621 0.95227,1.2134 1.10268,2.21156 l 1.40669,9.50615 4.4896,-0.66435 -1.52521,-10.30712 c -0.30379,-1.90121 -1.0332,-3.31271 -2.18822,-4.23449 -1.15505,-0.92174 -2.588,-1.26524 -4.29884,-1.03049 -1.20724,0.18876 -2.18746,0.61517 -2.94067,1.27923 -0.75322,0.6641 -1.24472,1.50014 -1.47452,2.50811 l -0.1897,0.0281 -0.42263,-2.85607 -4.27882,0.63317 2.39542,16.18786 4.48961,-0.66435 z"
         style=""
         id="path28256" />
      <path
         d="m 327.20431,911.94446 c -1.10191,-2.30925 -2.67216,-3.85664 -4.71078,-4.64218 -2.03863,-0.78549 -4.28216,-0.79427 -6.73058,-0.0263 -2.79827,0.91855 -4.7998,2.58445 -6.0046,4.99769 -1.20479,2.41328 -1.28961,5.33889 -0.25445,8.77684 1.14836,3.39191 2.90797,5.72373 5.27883,6.99548 2.37085,1.27176 4.97752,1.4639 7.82001,0.57642 2.65458,-0.92539 4.52387,-2.3508 5.60787,-4.27624 1.08397,-1.92543 1.43446,-3.91859 1.05148,-5.9795 l -4.45029,1.40358 c 0.13499,1.18945 -0.0989,2.21392 -0.70171,3.0734 -0.60281,0.8595 -1.49662,1.48291 -2.68141,1.87023 -1.60274,0.50795 -3.06431,0.34139 -4.38471,-0.4997 -1.3204,-0.84107 -2.34911,-2.37133 -3.08613,-4.59079 -0.67557,-2.1804 -0.72543,-4.00753 -0.14957,-5.48139 0.57586,-1.47383 1.67626,-2.47808 3.30121,-3.01274 1.22079,-0.37973 2.32991,-0.37479 3.32737,0.0148 0.99744,0.38964 1.77199,1.13107 2.32367,2.22427 z"
         style=""
         id="path28258" />
      <path
         d="m 340.40521,921.66537 c 2.25917,-1.08886 3.71287,-2.61945 4.3611,-4.59177 0.64821,-1.97232 0.44575,-4.12315 -0.60739,-6.4525 -1.10532,-2.32151 -2.62039,-3.87148 -4.54522,-4.64991 -1.92484,-0.7784 -4.03203,-0.65589 -6.32158,0.36751 -2.25965,1.08787 -3.71353,2.61806 -4.36167,4.59057 -0.64812,1.97253 -0.44248,4.13021 0.61693,6.47303 1.09905,2.30804 2.61094,3.85117 4.53569,4.62938 1.92474,0.77821 4.03211,0.65611 6.32214,-0.36631 z m -1.4607,-3.198 c -1.05163,0.45723 -2.03213,0.3955 -2.9415,-0.18522 -0.90938,-0.58069 -1.67094,-1.53097 -2.2847,-2.85081 -0.61193,-1.32117 -0.84677,-2.51785 -0.7045,-3.59006 0.14226,-1.07218 0.72734,-1.86246 1.75524,-2.37084 1.03329,-0.44821 2.00326,-0.37963 2.90992,0.20575 0.90665,0.5854 1.66735,1.53803 2.28211,2.85789 0.61093,1.32116 0.84663,2.51548 0.70709,3.58298 -0.13955,1.06751 -0.71411,1.85095 -1.72366,2.35031 z"
         style=""
         id="path28260" />
      <path
         d="m 349.43782,917.25776 3.8121,-2.46289 -5.33048,-8.25059 c -0.48437,-0.77997 -0.6659,-1.53048 -0.54458,-2.25152 0.12132,-0.72101 0.50318,-1.29644 1.14558,-1.72629 0.64029,-0.40282 1.27476,-0.52999 1.90342,-0.38152 0.62865,0.14851 1.16817,0.5615 1.61856,1.23896 l 5.53861,8.57275 3.69577,-2.38774 -5.42298,-8.39376 c -0.46147,-0.72528 -0.64013,-1.42637 -0.536,-2.10327 0.10411,-0.67687 0.50201,-1.24628 1.1937,-1.70824 0.62106,-0.40149 1.25124,-0.53857 1.89055,-0.41125 0.6393,0.12737 1.21238,0.5694 1.71926,1.32611 l 5.48658,8.4922 3.80315,-2.45711 -5.97222,-9.24388 c -0.98879,-1.48543 -2.13533,-2.37825 -3.43962,-2.67846 -1.30432,-0.30016 -2.60938,-0.0346 -3.91518,0.79656 -1.01178,0.66797 -1.73031,1.46832 -2.1556,2.40104 -0.4253,0.93277 -0.52704,1.8927 -0.3052,2.8798 l -0.14318,0.0925 c -0.74964,-0.65721 -1.59939,-1.00558 -2.54926,-1.04513 -0.94987,-0.0395 -1.90477,0.24447 -2.86469,0.85195 -0.9295,0.61084 -1.57819,1.35814 -1.94608,2.24189 -0.36789,0.88378 -0.43506,1.82931 -0.20152,2.8366 l -0.16107,0.10406 -1.56677,-2.42506 -3.63312,2.34726 z"
         style=""
         id="path28262" />
      <path
         d="m 371.49503,902.73904 3.35069,-3.06118 -6.62536,-7.25196 c -0.60705,-0.6888 -0.91057,-1.39879 -0.91055,-2.12997 2e-5,-0.73115 0.28113,-1.36195 0.84332,-1.89242 0.56458,-0.50346 1.16917,-0.73412 1.81375,-0.692 0.64458,0.0422 1.24514,0.35992 1.80167,0.95328 l 6.88405,7.53512 3.24844,-2.96776 -6.74033,-7.3778 c -0.57539,-0.63867 -0.86789,-1.30041 -0.8775,-1.98521 -0.01,-0.68475 0.28831,-1.31229 0.89378,-1.88259 0.54584,-0.49896 1.14455,-0.73869 1.79612,-0.71919 0.65157,0.0195 1.29005,0.36038 1.91544,1.02251 l 6.81937,7.46433 3.34283,-3.05399 -7.42299,-8.12503 c -1.22152,-1.3008 -2.50028,-1.99104 -3.83631,-2.07072 -1.33604,-0.0796 -2.57896,0.39872 -3.72878,1.43504 -0.88694,0.82656 -1.46274,1.73502 -1.72741,2.72537 -0.26466,0.9904 -0.20573,1.95391 0.17679,2.89053 l -0.12585,0.11497 c -0.84828,-0.52373 -1.74406,-0.72631 -2.68732,-0.60773 -0.94327,0.11862 -1.83782,0.55708 -2.68367,1.31538 -0.81527,0.75659 -1.33101,1.60114 -1.54719,2.53368 -0.21617,0.93256 -0.12555,1.87614 0.27186,2.83072 l -0.14158,0.12935 -1.94737,-2.13155 -3.19337,2.91746 z"
         style=""
         id="path28264" />
      <path
         d="m 390.5091,884.4928 3.00908,-3.39754 -12.25031,-10.84965 -3.00908,3.39755 z m -12.31785,-13.95498 c 0.448,-0.53092 0.6636,-1.1138 0.6468,-1.74865 -0.0168,-0.63481 -0.26272,-1.17462 -0.73782,-1.61941 -0.49509,-0.41446 -1.05832,-0.59131 -1.68971,-0.53056 -0.63137,0.0608 -1.1836,0.34552 -1.6567,0.85422 -0.44443,0.52728 -0.6583,1.10755 -0.64161,1.74079 0.0167,0.63328 0.26062,1.17069 0.73172,1.61224 0.49908,0.41771 1.06435,0.59695 1.69581,0.53774 0.63148,-0.0592 1.18199,-0.34131 1.65151,-0.84637 z"
         style=""
         id="path28266" />
      <path
         d="m 387.78434,862.1528 -1.90868,2.41594 -3.07635,-2.43043 -2.81348,3.56121 3.07635,2.43043 -1.38693,1.75552 2.67509,2.11342 1.38693,-1.75553 6.68772,5.28353 c 1.26744,0.98577 2.51124,1.33764 3.73142,1.05561 1.22018,-0.28201 2.32124,-1.09855 3.30321,-2.44962 0.3424,-0.47708 0.6067,-0.90471 0.7929,-1.28289 0.18618,-0.37817 0.31896,-0.68229 0.39833,-0.91236 l -3.0925,-1.5335 c -0.0538,0.10824 -0.13114,0.25479 -0.23192,0.43963 -0.10079,0.18487 -0.21783,0.36451 -0.35112,0.53895 -0.27582,0.36847 -0.59019,0.59023 -0.94309,0.66527 -0.35291,0.0751 -0.77354,-0.0756 -1.26189,-0.45214 l -6.21958,-4.91369 1.90868,-2.41594 z"
         style=""
         id="path28268" />
      <path
         d="m 402.10173,870.92123 2.37767,-3.86582 -8.36688,-5.14604 c -0.77333,-0.49491 -1.2607,-1.0938 -1.46212,-1.79669 -0.20141,-0.70286 -0.10496,-1.3867 0.28933,-2.05152 0.40403,-0.63952 0.92167,-1.02782 1.55291,-1.1649 0.63125,-0.13706 1.29611,0.003 1.99458,0.42003 l 8.69357,5.34696 2.30511,-3.74785 -8.51208,-5.23534 c -0.72907,-0.45543 -1.19256,-1.01097 -1.39046,-1.66663 -0.19789,-0.65561 -0.0844,-1.34093 0.34054,-2.05597 0.38725,-0.63003 0.89675,-1.02543 1.52848,-1.18619 0.63174,-0.16072 1.3394,-0.009 2.12301,0.45524 l 8.61189,5.29673 2.37209,-3.85675 -9.37417,-5.76557 c -1.53261,-0.91394 -2.95205,-1.22517 -4.25833,-0.93369 -1.30627,0.29154 -2.36931,1.0938 -3.18912,2.40679 -0.62491,1.03893 -0.92815,2.07086 -0.90972,3.0958 0.0184,1.02499 0.34052,1.93497 0.96627,2.72997 l -0.0893,0.14519 c -0.95974,-0.26976 -1.87666,-0.21771 -2.75075,0.15614 -0.87409,0.3739 -1.61323,1.04184 -2.21742,2.00383 -0.57529,0.95192 -0.83839,1.90587 -0.7893,2.86187 0.0491,0.95604 0.39618,1.83813 1.0412,2.64629 l -0.10046,0.16334 -2.45924,-1.51255 -2.26605,3.68433 z"
         style=""
         id="path28270" />
      <path
         d="m 418.77424,841.5017 c 0.80285,-1.87567 1.05432,-3.58036 0.75442,-5.11408 -0.29992,-1.53369 -1.0861,-2.76312 -2.35856,-3.68828 l -1.941,3.73214 c 0.47648,0.46784 0.75098,1.01643 0.8235,1.64577 0.0725,0.62936 -0.0443,1.29412 -0.35049,1.99428 -0.47196,1.04577 -1.1567,1.72979 -2.05423,2.05204 -0.89752,0.32227 -1.91269,0.24165 -3.0455,-0.24187 l -0.01,-0.004 4.47966,-10.20378 -1.14134,-0.50107 c -2.56501,-1.07129 -4.76768,-1.22869 -6.60803,-0.4722 -1.84032,0.75653 -3.20465,2.14815 -4.09299,4.17487 -0.94568,2.24687 -1.00485,4.32299 -0.17753,6.22835 0.82735,1.90537 2.40809,3.38666 4.74221,4.44387 2.40932,1.03229 4.57988,1.19547 6.5117,0.48954 1.93181,-0.70592 3.42112,-2.21768 4.46793,-4.5353 z m -10.75694,-0.7549 c -0.84956,-0.44181 -1.4352,-1.079 -1.7569,-1.91157 -0.32169,-0.83254 -0.28781,-1.72134 0.10162,-2.66639 0.41886,-0.90933 1.03048,-1.51733 1.83486,-1.82402 0.80439,-0.30666 1.6653,-0.27 2.58273,0.10997 z"
         style=""
         id="path28272" />
      <path
         d="m 414.50501,825.48343 c -1.00802,-0.33564 -1.70548,-0.85667 -2.09237,-1.5631 -0.38687,-0.70641 -0.44502,-1.50463 -0.17445,-2.39465 0.28203,-0.87456 0.76463,-1.47148 1.4478,-1.79077 0.68317,-0.31925 1.50685,-0.32944 2.47102,-0.0306 l 9.17118,2.86968 1.35531,-4.3314 -9.94393,-3.11148 c -1.84399,-0.55371 -3.43224,-0.51113 -4.76475,0.12775 -1.33249,0.63892 -2.26526,1.77965 -2.7983,3.4222 -0.35533,1.1691 -0.39791,2.2372 -0.12773,3.20431 0.2702,0.96714 0.80909,1.77345 1.61667,2.41893 l -0.0573,0.18302 -2.75542,-0.86218 -1.29168,4.12805 15.61745,4.88674 1.35531,-4.33141 z"
         style=""
         id="path28274" />
      <path
         d="m 413.02299,803.76762 -0.65035,3.00946 -3.83212,-0.82812 -0.95864,4.43609 3.83211,0.82812 -0.47257,2.18681 3.33227,0.72011 0.47258,-2.18681 8.33068,1.80028 c 1.57196,0.32722 2.84367,0.0957 3.81513,-0.69468 0.97147,-0.79033 1.60069,-2.00818 1.88768,-3.65356 0.0974,-0.5791 0.14652,-1.07941 0.14724,-1.50095 7.2e-4,-0.42151 -0.0139,-0.75303 -0.0439,-0.99455 l -3.45181,-0.0157 c -6.9e-4,0.12089 -0.006,0.28651 -0.0147,0.49684 -0.009,0.21035 -0.0351,0.42318 -0.078,0.63848 -0.0855,0.45227 -0.27012,0.78976 -0.55396,1.01249 -0.28384,0.22274 -0.72787,0.27257 -1.33209,0.14948 l -7.74754,-1.67426 0.65035,-3.00946 z"
         style=""
         id="path28276" />
    </g>
    <path
       transform="matrix(1.2957454,0,0,1.2957454,-49.298422,-261.2784)"
       style="fill:none;stroke:#ffffff;stroke-width:1.54351306;stroke-linecap:square;stroke-linejoin:round;stroke-miterlimit:4;stroke-dashoffset:0;stroke-opacity:0.58823529"
       d="m 345.97724,802.34943 c 0,53.27867 -43.19089,96.46956 -96.46956,96.46956 -53.27868,0 -96.46957,-43.19089 -96.46957,-96.46956 0,-53.27867 43.19089,-96.46957 96.46957,-96.46957 53.27867,0 96.46956,43.1909 96.46956,96.46957 z"
       id="path5705" />
    <path
       transform="matrix(1.2335497,0,0,1.2335497,-33.780117,-211.37571)"
       style="fill:none;stroke:#ffffff;stroke-width:1.62133729;stroke-linecap:square;stroke-linejoin:round;stroke-miterlimit:4;stroke-dashoffset:0;stroke-opacity:1"
       d="m 345.97724,802.34943 c 0,53.27867 -43.19089,96.46956 -96.46956,96.46956 -53.27868,0 -96.46957,-43.19089 -96.46957,-96.46956 0,-53.27867 43.19089,-96.46957 96.46957,-96.46957 53.27867,0 96.46956,43.1909 96.46956,96.46957 z"
       id="path5707" />
    <path
       transform="matrix(1.7518478,0,0,1.7518478,-163.09947,-627.2319)"
       style="fill:none;stroke:#ffffff;stroke-width:1.14165163;stroke-linecap:square;stroke-linejoin:round;stroke-miterlimit:4;stroke-dashoffset:0;stroke-opacity:0.58823529"
       d="m 345.97724,802.34943 c 0,53.27867 -43.19089,96.46956 -96.46956,96.46956 -53.27868,0 -96.46957,-43.19089 -96.46957,-96.46956 0,-53.27867 43.19089,-96.46957 96.46957,-96.46957 53.27867,0 96.46956,43.1909 96.46956,96.46957 z"
       id="path5709" />
    <path
       transform="matrix(1.8140436,0,0,1.8140436,-178.6178,-677.13466)"
       style="fill:none;stroke:#ffffff;stroke-width:1.10250926;stroke-linecap:square;stroke-linejoin:round;stroke-miterlimit:4;stroke-dashoffset:0;stroke-opacity:0.58823529"
       d="m 345.97724,802.34943 c 0,53.27867 -43.19089,96.46956 -96.46956,96.46956 -53.27868,0 -96.46957,-43.19089 -96.46957,-96.46956 0,-53.27867 43.19089,-96.46957 96.46957,-96.46957 53.27867,0 96.46956,43.1909 96.46956,96.46957 z"
       id="path5711" />
    <g
       transform="matrix(0.46125191,0,0,0.46125191,204.81221,362.14589)"
       id="layer1-5"
       inkscape:label="Layer 1">
      <g
         transform="matrix(1.1999997,0,0,1.1999997,-348.85707,188.09921)"
         id="g5446">
        <g
           transform="translate(-1631.338,-2414.4144)"
           id="g4626">
          <path
             transform="matrix(0.75431037,0,0,0.75431037,852.54803,1957.2053)"
             style="fill:#ffffff;fill-opacity:0;stroke:none"
             d="m 1749.2857,1395.2194 c 0,91.5214 -74.1928,165.7142 -165.7143,165.7142 -91.5215,0 -165.7143,-74.1928 -165.7143,-165.7142 0,-91.5215 74.1928,-165.7143 165.7143,-165.7143 91.5215,0 165.7143,74.1928 165.7143,165.7143 z"
             id="path10516-3" />
          <path
             transform="matrix(0.75431037,0,0,0.75431037,852.54803,1957.2053)"
             style="fill:#ffffff;fill-opacity:0;stroke:none"
             d="m 1749.2857,1395.2194 c 0,91.5214 -74.1928,165.7142 -165.7143,165.7142 -91.5215,0 -165.7143,-74.1928 -165.7143,-165.7142 0,-91.5215 74.1928,-165.7143 165.7143,-165.7143 91.5215,0 165.7143,74.1928 165.7143,165.7143 z"
             id="path6252-1-8-5-6" />
          <path
             inkscape:connector-curvature="0"
             id="path6252-2-2-1"
             d="m 2047.0522,2884.6337 c -69.0337,0 -124.9999,55.9663 -124.9999,125 0,69.0337 55.9662,125 124.9999,125 38.5218,0 72.96,-17.4345 95.8891,-44.8332 -21.0767,21.9672 -50.7141,35.6402 -83.5612,35.6402 -63.9602,0 -115.8305,-51.8468 -115.8305,-115.807 0,-63.9602 51.8703,-115.807 115.8305,-115.807 32.8231,0 62.4403,13.6541 83.5141,35.593 -22.9292,-27.3671 -57.346,-44.786 -95.842,-44.786 z"
             style="fill:#0096db;fill-opacity:1;stroke:none" />
          <path
             inkscape:connector-curvature="0"
             style="fill:#a83da3;fill-opacity:1;stroke:none"
             d="m 2059.3507,2900.1563 c 60.461,0 109.4773,49.0163 109.4773,109.4774 0,60.4611 -49.0163,109.4774 -109.4773,109.4774 -33.7381,0 -63.8998,-15.2695 -83.9816,-39.2658 18.4593,19.2393 44.4164,31.2144 73.1846,31.2144 56.0175,0 101.4466,-45.4084 101.4466,-101.426 0,-56.0176 -45.4291,-101.426 -101.4466,-101.426 -28.7471,0 -54.6864,11.9585 -73.1433,31.173 20.0819,-23.9687 50.2247,-39.2244 83.9403,-39.2244 z"
             id="path6258-4-7-8" />
        </g>
        <g
           transform="matrix(1.0476604,0,0,1.0476604,-743.38725,-1313.2288)"
           id="g6283-5-6-9">
          <path
             id="path6285-5-1-2"
             d="m 1141.7669,1781.8576 c -12.4916,0 -22.3377,2.6273 -29.5665,7.8449 3.8391,4.6155 6.6301,10.0986 8.4386,16.2834 0.2549,-0.2399 0.5102,-0.491 0.7814,-0.7189 4.5189,-3.7979 11.3049,-5.6882 20.3465,-5.6882 l 35.2548,0 0,-17.7212 -35.2548,0 z"
             style="font-size:114.44565582px;font-style:normal;font-variant:normal;font-weight:normal;font-stretch:normal;text-align:start;line-height:125%;letter-spacing:0px;word-spacing:0px;writing-mode:lr-tb;text-anchor:start;fill:#a83da3;fill-opacity:1;stroke:none;font-family:NordiquePro-Semibold;-inkscape-font-specification:NordiquePro-Semibold"
             inkscape:connector-curvature="0" />
          <path
             id="path6287-1-4-7"
             d="m 1123.2644,1839.3654 0,16.1897 0,3.4068 c 5.3476,1.6386 11.502,2.4377 18.5025,2.4377 l 35.2548,0 0,-17.7211 -35.2548,0 c -7.8901,0 -14.0565,-1.421 -18.5025,-4.3131 z"
             style="font-size:114.44565582px;font-style:normal;font-variant:normal;font-weight:normal;font-stretch:normal;text-align:start;line-height:125%;letter-spacing:0px;word-spacing:0px;writing-mode:lr-tb;text-anchor:start;fill:#a83da3;fill-opacity:1;stroke:none;font-family:NordiquePro-Semibold;-inkscape-font-specification:NordiquePro-Semibold"
             inkscape:connector-curvature="0" />
          <path
             id="path6289-7-2-9"
             d="m 1075.5079,1781.8576 c -12.0526,-10e-5 -21.7106,3.7154 -28.9414,11.1265 -7.2308,7.411 -10.8452,18.4876 -10.8453,33.192 l 0,35.2235 17.7212,0 0,-35.2235 c 0,-9.0404 1.8909,-15.8282 5.6883,-20.3464 3.7975,-4.5186 9.2678,-6.7823 16.3772,-6.7823 7.1094,0 12.5484,2.2638 16.346,6.7823 3.466,4.1238 5.3545,10.1422 5.657,18.0336 0.4343,11.0182 4.1152,19.9112 11.064,26.6911 1.9682,1.9203 4.2061,3.5903 6.6884,5.0007 l 0,-29.379 c 0,-14.7044 -3.6144,-25.7809 -10.8452,-33.192 -7.2308,-7.411 -16.8577,-11.1265 -28.9102,-11.1265 z"
             style="font-size:114.44565582px;font-style:normal;font-variant:normal;font-weight:normal;font-stretch:normal;text-align:start;line-height:125%;letter-spacing:0px;word-spacing:0px;writing-mode:lr-tb;text-anchor:start;fill:#0096db;fill-opacity:1;stroke:none;font-family:NordiquePro-Semibold;-inkscape-font-specification:NordiquePro-Semibold"
             inkscape:connector-curvature="0" />
        </g>
      </g>
    </g>
  </g>
</svg>
